<?xml version="1.0" standalone="no"?>
<!DOCTYPE svg PUBLIC "-//W3C//DTD SVG 1.1//EN" "http://www.w3.org/Graphics/SVG/1.1/DTD/svg11.dtd" >
<svg xmlns="http://www.w3.org/2000/svg">
<metadata></metadata>
<defs>
<font id="newslab_bookbook" horiz-adv-x="1495" >
<font-face units-per-em="2048" ascent="1536" descent="-512" />
<missing-glyph horiz-adv-x="487" />
<glyph unicode="&#xfb01;" horiz-adv-x="1269" d="M74 834v122h145v246q0 169 83.5 256.5t236.5 87.5q45 0 86.5 -8t60.5 -16l19 -9v-129q-56 31 -144 31q-188 0 -188 -215v-244h305v-122h-305v-707h211v-127h-506v127h141v707h-145zM774 0v127h141v702h-141v127h295v-829h137v-127h-432zM866 1339q0 49 35 84t84 35 q51 0 87 -35t36 -84q0 -52 -36 -87t-87 -35q-50 0 -84.5 35t-34.5 87z" />
<glyph unicode="&#xfb02;" horiz-adv-x="1267" d="M74 834v122h145v246q0 169 83.5 256.5t236.5 87.5q45 0 86.5 -8t60.5 -16l19 -9v-129q-56 31 -144 31q-188 0 -188 -215v-244h305v-122h-305v-707h211v-127h-506v127h141v707h-145zM772 0v127h139v1274h-139v127h293v-1401h137v-127h-430z" />
<glyph horiz-adv-x="0" />
<glyph horiz-adv-x="682" />
<glyph unicode=" "  horiz-adv-x="487" />
<glyph unicode="&#x09;" horiz-adv-x="487" />
<glyph unicode="&#xa0;" horiz-adv-x="487" />
<glyph unicode="!" horiz-adv-x="524" d="M160 88q0 41 30.5 71.5t71.5 30.5t72 -30.5t31 -71.5q0 -42 -30.5 -72t-72.5 -30t-72 30t-30 72zM178 1528h170l-22 -1182h-127z" />
<glyph unicode="&#x22;" horiz-adv-x="643" d="M125 1544h133l-8 -381h-115zM385 1544h133l-10 -381h-113z" />
<glyph unicode="#" horiz-adv-x="1284" d="M74 377v129h231l92 362h-188v129h221l107 424h147l-106 -424h278l107 424h147l-106 -424h206v-129h-239l-92 -362h196v-129h-229l-94 -377h-148l94 377h-278l-94 -377h-148l94 377h-198zM453 506h278l92 362h-278z" />
<glyph unicode="$" horiz-adv-x="1181" d="M94 1049q0 144 112.5 250t315.5 120v164h125v-166q193 -15 298.5 -109.5t105.5 -242.5v-78h-158v49q0 106 -76 175t-239 69q-145 0 -232.5 -63t-87.5 -164q0 -57 28.5 -100.5t77 -71.5t111 -50t132 -42t139 -41.5t132 -53.5t111 -74t77 -107t28.5 -148 q0 -156 -111.5 -260t-335.5 -117v-168h-125v168q-206 13 -313 113.5t-107 238.5l2 86h160v-55q0 -111 88 -177.5t230 -66.5q173 0 260.5 57.5t87.5 167.5q0 62 -28.5 109t-77 77t-111 54t-132 44t-139 41.5t-132 52.5t-111 71.5t-77 103.5t-28.5 144z" />
<glyph unicode="%" horiz-adv-x="1595" d="M72 1055q0 178 79.5 272t217.5 94t217.5 -94t79.5 -272q0 -179 -79 -271t-218 -92t-218 92t-79 271zM205 1055q0 -242 164 -242q163 0 163 242q0 125 -43.5 185t-119.5 60t-120 -60t-44 -185zM328 2l874 1530l107 -64l-877 -1529zM926 348q0 178 80 272.5t217 94.5 q138 0 218.5 -94.5t80.5 -272.5t-80 -270t-219 -92q-138 0 -217.5 92t-79.5 270zM1059 348q0 -242 164 -242q77 0 121.5 58t44.5 184q0 125 -45 185.5t-121 60.5t-120 -60.5t-44 -185.5z" />
<glyph unicode="&#x26;" horiz-adv-x="1357" d="M88 377q0 72 22.5 133.5t55 101.5t76.5 72.5t77 49t68 28.5q-145 185 -145 328q0 154 103 242.5t255 88.5q52 0 101.5 -11t95.5 -36t80.5 -61.5t55.5 -91.5t21 -121q0 -76 -28 -139.5t-66.5 -102t-90.5 -68.5t-87.5 -42.5t-69.5 -20.5l342 -381q50 95 50 203v156h280 v-132h-135v-4q0 -193 -94 -336l213 -233h-205l-107 121q-156 -135 -378 -135q-122 0 -219 34.5t-154.5 91t-87 124.5t-29.5 141zM250 383q0 -115 96 -184.5t234 -69.5q161 0 280 98l-383 432q-35 -11 -68 -28.5t-72 -49t-63 -83t-24 -115.5zM406 1090q0 -119 122 -269 q25 3 52.5 10t67.5 27t70.5 48t52.5 76.5t22 109.5q0 77 -49.5 132.5t-135.5 55.5q-94 0 -148 -51t-54 -139z" />
<glyph unicode="'" horiz-adv-x="382" d="M125 1544h133l-8 -381h-115z" />
<glyph unicode="(" horiz-adv-x="724" d="M84 487q0 139 23.5 267t60.5 224.5t88.5 183t101 145.5t104 109t92.5 76.5t71 45.5l67 -92q-27 -21 -55.5 -46t-75.5 -75t-88.5 -105.5t-86.5 -136.5t-76.5 -167t-52.5 -198.5t-21 -230.5t21 -230.5t52.5 -198.5t76.5 -167t86.5 -136t88.5 -105t75.5 -75t55.5 -46 l-67 -92q-34 19 -71 45.5t-92 77t-104.5 109t-101 145t-88.5 182.5t-60.5 224t-23.5 267z" />
<glyph unicode=")" horiz-adv-x="724" d="M33 -471q27 20 55.5 45.5t75.5 75.5t88 105t85.5 136t76.5 167t52.5 198.5t20.5 230.5t-20.5 230.5t-52.5 198.5t-76.5 167t-85.5 136.5t-88 105.5t-75.5 75.5t-55.5 45.5l67 92q33 -19 71 -45.5t92.5 -76.5t104 -109t101 -145.5t88.5 -183t60.5 -224.5t23.5 -267 t-23.5 -267t-60.5 -224t-88.5 -182.5t-101 -145t-104.5 -109t-92 -77t-71 -45.5z" />
<glyph unicode="*" horiz-adv-x="819" d="M111 1280l47 80l196 -107l4 238h97l8 -238l196 107l48 -80l-209 -129l149 -190l-72 -62l-165 188l-168 -188l-70 62l150 190z" />
<glyph unicode="+" horiz-adv-x="1110" d="M92 588v129h402v436h145v-436h381v-129h-381v-436h-145v436h-402z" />
<glyph unicode="," horiz-adv-x="471" d="M127 80q0 40 28.5 67t69.5 27q53 0 85 -37.5t32 -103.5q0 -60 -15 -107t-40.5 -75t-49.5 -43.5t-51 -24.5l-22 55q29 9 60.5 45t31.5 94l-4 19q-10 -10 -39 -10q-36 0 -61 26.5t-25 67.5z" />
<glyph unicode="-" horiz-adv-x="948" d="M133 526v144h682v-144h-682z" />
<glyph unicode="." horiz-adv-x="444" d="M119 88q0 43 30.5 74t71.5 31q43 0 74 -31t31 -74q0 -42 -31 -72t-74 -30q-42 0 -72 30t-30 72z" />
<glyph unicode="/" horiz-adv-x="786" d="M55 -164l539 1804l137 -41l-538 -1804z" />
<glyph unicode="0" horiz-adv-x="1355" d="M106 694q0 361 152 544t420 183q267 0 419 -183t152 -544q0 -353 -151.5 -530.5t-419.5 -177.5t-420 178t-152 530zM270 694q0 -567 408 -567q407 0 407 567q0 303 -108.5 444.5t-298.5 141.5q-191 0 -299.5 -141.5t-108.5 -444.5z" />
<glyph unicode="1" horiz-adv-x="985" d="M80 1130l420 279h127v-1276h325v-133h-843v133h360v1073l-319 -174z" />
<glyph unicode="2" horiz-adv-x="1202" d="M94 946v68q0 77 28.5 147.5t85.5 129.5t153.5 94.5t220.5 35.5q246 0 373.5 -123t127.5 -327q0 -86 -23.5 -169.5t-63.5 -152t-91.5 -133t-108.5 -115t-114 -94.5t-108.5 -75.5t-91.5 -54t-64 -33.5l-23 -11h711v-133h-981v115q10 5 28 13t72 37t106.5 60.5t124.5 81 t133.5 100.5t124 117.5t106.5 133t72 146t28 157.5q0 145 -89 232t-245 87q-163 0 -245.5 -84t-82.5 -213v-37h-164z" />
<glyph unicode="3" horiz-adv-x="1214" d="M80 229l86 103q47 -53 79 -79q150 -126 333 -126q178 0 275 75.5t97 205.5q0 109 -79.5 174t-239.5 65h-158v137h143q34 0 70 6t77 23t72.5 43.5t52.5 72t21 103.5q0 108 -80 178t-243 70q-76 0 -134.5 -22t-90.5 -58t-48 -76t-16 -82v-36h-152v69q0 152 123.5 249 t323.5 97q125 0 220 -32.5t150 -87.5t82 -121t27 -140q0 -68 -23 -125t-55.5 -89t-65.5 -54.5t-56 -30.5l-23 -8v-8q11 -2 28.5 -6t63 -26t80.5 -54t63.5 -94.5t28.5 -141.5q0 -192 -142.5 -304.5t-391.5 -112.5q-318 0 -498 243z" />
<glyph unicode="4" horiz-adv-x="1167" d="M55 375v127l660 907h200v-903h181v-131h-181v-375h-157v375h-703zM227 506h531v727z" />
<glyph unicode="5" horiz-adv-x="1196" d="M66 217l98 107q12 -15 24.5 -29t53 -47.5t84 -56.5t113 -42.5t143.5 -19.5q173 0 269.5 82.5t96.5 243.5q0 136 -95 217.5t-275 81.5q-40 0 -81.5 -6.5t-73.5 -15.5t-63.5 -21t-50 -21t-34.5 -17.5t-17 -8.5l-88 38l63 707h818v-133h-680l-41 -455q11 8 33 20.5t92.5 33 t146.5 20.5q233 0 368.5 -120t135.5 -322q0 -218 -139 -342.5t-385 -124.5q-70 0 -134 11t-113.5 31t-90 41.5t-72.5 47.5t-51.5 44t-36.5 36.5t-18 19.5z" />
<glyph unicode="6" horiz-adv-x="1251" d="M106 696q0 184 42.5 323.5t122 227t187 131t242.5 43.5q79 0 152 -17t120.5 -41t73.5 -41t35 -26l-84 -116q-125 100 -297 100q-197 0 -309 -130.5t-121 -408.5q25 20 57 39t84.5 42t126.5 36.5t158 13.5q226 0 350.5 -119.5t124.5 -316.5t-135.5 -323.5t-363.5 -126.5 q-127 0 -229 41.5t-178 125.5t-117.5 222t-41.5 321zM274 590q18 -238 121.5 -350.5t276.5 -112.5q160 0 251 87t91 224q0 126 -92.5 209.5t-247.5 83.5q-77 0 -148.5 -16.5t-122 -42t-80 -45t-49.5 -37.5z" />
<glyph unicode="7" horiz-adv-x="1085" d="M68 1044l6 365h985v-98l-529 -1313h-168l498 1221q6 17 14.5 31.5t13.5 19.5l5 6h-698v-232h-127z" />
<glyph unicode="8" horiz-adv-x="1228" d="M102 375q0 73 23 134t55.5 98.5t78.5 67t80 43t71 23.5q-58 24 -101.5 51.5t-80.5 66.5t-56.5 92.5t-19.5 119.5q0 68 27 128.5t81.5 110.5t146.5 80t211 31q117 0 208 -29.5t143.5 -80t79 -110.5t26.5 -126q0 -70 -27.5 -131.5t-71 -102.5t-90.5 -67t-93 -35v-4 q121 -40 181 -79q154 -100 154 -281q0 -177 -141 -283t-373 -106q-228 0 -370 104.5t-142 284.5zM262 389q0 -118 94 -190t256 -72q165 0 260 70.5t95 191.5q0 38 -11.5 70.5t-26.5 56t-47 46.5t-54.5 36t-69 30.5t-70.5 25.5t-78 24q-27 -4 -51.5 -9t-61.5 -16.5t-67 -25.5 t-62.5 -36.5t-54.5 -50t-36.5 -66.5t-14.5 -85zM313 1067q0 -54 21.5 -98.5t52 -72t76 -50t82 -33t82.5 -20.5q56 12 105 34.5t90.5 55t66 80t24.5 102.5q0 92 -76.5 153.5t-224.5 61.5q-146 -1 -222.5 -62t-76.5 -151z" />
<glyph unicode="9" horiz-adv-x="1251" d="M82 971q0 197 135 323.5t363 126.5q128 0 230 -41.5t178.5 -125.5t117.5 -222t41 -321q0 -363 -159.5 -544t-436.5 -181q-78 0 -150.5 16.5t-121.5 41.5t-72.5 40.5t-36.5 26.5l84 116q125 -100 297 -100q410 0 430 528q-34 -28 -79.5 -53.5t-140.5 -50.5t-204 -25 q-227 0 -351 122t-124 323zM238 969q0 -129 93.5 -215t246.5 -86q79 0 151 16.5t123 43.5t78.5 45.5t48.5 37.5q-18 241 -121.5 355t-277.5 114q-160 0 -251 -87t-91 -224z" />
<glyph unicode=":" horiz-adv-x="456" d="M125 88q0 41 30.5 71.5t71.5 30.5q43 0 73 -30t30 -72q0 -43 -30 -72.5t-73 -29.5q-42 0 -72 30t-30 72zM125 905q0 41 30.5 72t71.5 31q42 0 72.5 -30.5t30.5 -72.5q0 -43 -30 -72.5t-73 -29.5q-42 0 -72 30t-30 72z" />
<glyph unicode=";" horiz-adv-x="483" d="M133 868q0 41 31 72t72 31q42 0 72 -30.5t30 -72.5q0 -43 -29.5 -73.5t-72.5 -30.5q-42 0 -72.5 31t-30.5 73zM137 80q0 40 29 67t70 27q53 0 84.5 -37t31.5 -104q0 -60 -15 -107t-40.5 -75t-50 -43.5t-51.5 -24.5l-21 55q29 9 60.5 45t31.5 94l-4 19q-10 -10 -39 -10 q-37 0 -61.5 26.5t-24.5 67.5z" />
<glyph unicode="&#x3c;" horiz-adv-x="774" d="M113 719v86l452 420l99 -103l-369 -360l369 -361l-99 -102z" />
<glyph unicode="=" horiz-adv-x="1050" d="M147 195v143h754v-143h-754zM147 674v145h754v-145h-754z" />
<glyph unicode="&#x3e;" horiz-adv-x="774" d="M111 401l368 361l-368 360l98 103l453 -420v-86l-453 -420z" />
<glyph unicode="?" horiz-adv-x="1048" d="M70 1094v51q0 75 26 144t78 126.5t140.5 92t201.5 34.5q218 0 336.5 -120.5t118.5 -315.5q0 -91 -33 -171.5t-81 -134.5t-107 -96.5t-106 -64t-83 -29.5v-213h-137v303q47 0 98 15.5t102 49.5t91.5 81t66 116t25.5 148q0 133 -76.5 212t-212.5 79q-143 0 -215 -81.5 t-72 -209.5v-16h-161zM391 88q0 43 29.5 74t71.5 31q43 0 73.5 -31t30.5 -74t-30.5 -72.5t-73.5 -29.5t-72 29.5t-29 72.5z" />
<glyph unicode="@" horiz-adv-x="2121" d="M84 530q0 154 41 299t124 270t199 218.5t275.5 147t343.5 53.5q193 0 353.5 -50.5t270.5 -137t186.5 -203t112 -247t35.5 -270.5q0 -128 -28 -233.5t-76 -177t-114.5 -120.5t-141.5 -71t-158 -22q-94 0 -136 44t-42 99v14h-6l-1 -2q-49 -80 -152 -123q-79 -32 -179 -32 q-90 0 -169.5 33t-140 94t-95.5 155t-35 209q0 228 127 361t321 133q63 0 119 -15t91 -37t61.5 -44t37.5 -37l11 -15h6l25 133h114v-755q0 -92 80 -92q155 0 241.5 119.5t86.5 369.5q0 128 -30.5 243.5t-95 215.5t-158 172t-227 113.5t-294.5 41.5q-190 0 -348.5 -69 t-263 -186t-162 -271.5t-57.5 -327.5q0 -96 16 -183t41 -154t64.5 -128t77 -104.5t89.5 -84t91.5 -65.5t92.5 -51t82.5 -37.5t71.5 -27.5l-82 -121q-162 66 -256 125q-440 277 -440 831zM702 477q0 -90 28.5 -161.5t75 -114t102.5 -64.5t116 -22q61 0 113 14.5t86 37.5 t54 43t34 40v434q-40 74 -118.5 116t-166.5 42q-138 0 -231 -94t-93 -271z" />
<glyph unicode="A" d="M-2 0v127h154l456 1155h-170v127h402l510 -1282h157v-127h-493v127h170l-137 350h-598l-136 -350h168v-127h-483zM502 612h491l-209 539l-28 82h-15q-24 -70 -28 -82z" />
<glyph unicode="B" horiz-adv-x="1370" d="M90 0v127h182v1155h-182v127h627q237 0 355 -95.5t118 -266.5q0 -63 -18 -114.5t-40 -81t-58 -55.5t-54.5 -34.5t-48.5 -20.5v-8q32 -5 64.5 -13.5t79.5 -33t81.5 -58.5t60 -94.5t25.5 -136.5q0 -189 -132 -293t-396 -104h-664zM430 133h330q358 0 358 270 q0 123 -94.5 188.5t-259.5 65.5h-334v-524zM430 786h334q64 0 122.5 25.5t99 82.5t40.5 134q0 71 -25.5 122t-69 77t-90.5 37.5t-102 11.5h-309v-490z" />
<glyph unicode="C" horiz-adv-x="1355" d="M104 696q0 360 165 542.5t454 182.5q239 0 388 -124t149 -330v-66h-158v47q0 105 -51.5 181.5t-134.5 113.5t-187 37q-105 0 -187.5 -33t-144.5 -101.5t-95.5 -182.5t-33.5 -269q0 -567 461 -567q363 0 363 307h161v-20q0 -201 -139 -314.5t-393 -113.5q-289 0 -453 178 t-164 532z" />
<glyph unicode="D" horiz-adv-x="1492" d="M90 0v127h182v1155h-182v127h580q350 0 535.5 -175t185.5 -536q0 -180 -48 -314t-139 -218t-217.5 -125t-288.5 -41h-608zM430 133h246q288 0 420.5 143t132.5 422q0 285 -138 431.5t-442 146.5h-219v-1143z" />
<glyph unicode="E" horiz-adv-x="1280" d="M90 0v127h182v1155h-182v127h1079l7 -354h-129v221h-617v-496h520v-135h-520v-512h619v219h125l-7 -352h-1077z" />
<glyph unicode="F" horiz-adv-x="1236" d="M90 0v127h182v1155h-182v127h1079l7 -354h-127v221h-619v-496h520v-135h-520v-518h326v-127h-666z" />
<glyph unicode="G" horiz-adv-x="1372" d="M104 696q0 360 165 542.5t454 182.5q240 0 388.5 -123.5t148.5 -328.5v-68h-158v51q0 155 -106.5 241.5t-266.5 86.5q-105 0 -187.5 -33t-144.5 -101.5t-95.5 -182.5t-33.5 -269q0 -153 34 -264.5t97 -176.5t145 -95.5t187 -30.5q371 0 371 346v66h-400v135h558v-199 q0 -233 -140 -361t-397 -128q-142 0 -254.5 43.5t-194.5 129.5t-126 222t-44 315z" />
<glyph unicode="H" horiz-adv-x="1654" d="M90 0v127h182v1155h-182v127h526v-127h-186v-522h793v522h-183v127h527v-127h-187v-1155h187v-127h-527v127h183v500h-793v-500h186v-127h-526z" />
<glyph unicode="I" horiz-adv-x="704" d="M90 0v127h182v1155h-182v127h526v-127h-186v-1155h186v-127h-526z" />
<glyph unicode="J" horiz-adv-x="688" d="M20 -342q130 41 192 129t62 252v1243h-186v127h530v-127h-186v-1253q0 -118 -29 -212t-80 -155t-115.5 -97t-141.5 -50z" />
<glyph unicode="K" horiz-adv-x="1482" d="M90 0v129h182v1151h-182v129h512v-129h-172v-543h287l377 543h-174v129h528v-129h-176l-416 -590l436 -563h144l-2 -127h-244l-473 606h-287v-477h201v-129h-541z" />
<glyph unicode="L" horiz-adv-x="1187" d="M90 0v127h182v1155h-182v127h524v-127h-184v-1149h588v244h125l-6 -377h-1047z" />
<glyph unicode="M" horiz-adv-x="1929" d="M66 0v127h182l69 1155h-186v127h401l336 -825q12 -28 35 -92.5t41 -115.5l17 -50h14q67 195 94 258l334 825h395v-127h-186l69 -1155h183v-127h-508v127h168l-66 1034h-6l-418 -1050h-139l-418 1050h-6l-65 -1034h167v-127h-507z" />
<glyph unicode="N" horiz-adv-x="1675" d="M90 0v127h182v1155h-182v127h354l809 -1182h9v1055h-185v127h527v-127h-185v-1282h-188l-795 1157h-6v-1030h186v-127h-526z" />
<glyph unicode="O" horiz-adv-x="1445" d="M104 694q0 361 164.5 544t454.5 183q291 0 455.5 -183t164.5 -544q0 -353 -164.5 -530.5t-455.5 -177.5q-290 0 -454.5 177.5t-164.5 530.5zM268 694q0 -567 455 -567q457 0 457 567q0 155 -33.5 269t-95 182.5t-143.5 101.5t-185 33t-184.5 -33t-143 -101.5 t-94.5 -182.5t-33 -269z" />
<glyph unicode="P" horiz-adv-x="1275" d="M90 0v127h182v1155h-182v127h633q212 0 346.5 -114t134.5 -322q0 -217 -131.5 -331t-374.5 -114h-268v-401h229v-127h-569zM430 664h260q350 0 350 309q0 79 -28 139t-77.5 95t-110 52t-132.5 17h-262v-612z" />
<glyph unicode="Q" horiz-adv-x="1445" d="M104 694q0 361 164.5 544t454.5 183q291 0 455.5 -183t164.5 -544q0 -330 -144 -506.5t-402 -197.5q14 -110 102 -171.5t248 -90.5l-51 -140q-198 24 -318 140.5t-123 261.5q-260 19 -405.5 195.5t-145.5 508.5zM268 694q0 -567 455 -567q457 0 457 567q0 155 -33.5 269 t-95 182.5t-143.5 101.5t-185 33t-184.5 -33t-143 -101.5t-94.5 -182.5t-33 -269z" />
<glyph unicode="R" horiz-adv-x="1376" d="M90 0v127h182v1155h-182v127h666q138 0 245.5 -47t171.5 -145.5t64 -235.5q0 -174 -85.5 -279t-227.5 -139v-6q22 -20 34 -43l220 -387h149v-127h-254l-299 535h-344v-408h232v-127h-572zM430 668h315q159 0 244.5 72t85.5 235q0 79 -28 138.5t-78 94t-111.5 51.5 t-134.5 17h-293v-608z" />
<glyph unicode="S" horiz-adv-x="1193" d="M104 1049q0 74 31 140.5t89.5 118.5t151.5 82.5t208 30.5q226 0 350.5 -97.5t124.5 -258.5v-78h-158v49q0 106 -76 175t-239 69q-145 0 -232.5 -63t-87.5 -164q0 -57 28.5 -100.5t77 -71.5t111 -50t132 -42t139 -41.5t132 -53.5t111 -74t77 -107t28.5 -148 q0 -80 -30 -147t-90 -119.5t-159 -82.5t-229 -30q-122 0 -216.5 29.5t-151.5 79.5t-86 112.5t-29 132.5v86h161v-55q0 -112 88 -178t232 -66q172 0 260 57.5t88 167.5q0 62 -28.5 109t-77 77t-111 54t-132 44t-139 41.5t-132 52.5t-111 71.5t-77 103.5t-28.5 144z" />
<glyph unicode="T" horiz-adv-x="1335" d="M45 1055l6 354h1233l6 -354h-127v221h-415v-1149h186v-127h-528v127h184v1149h-418v-221h-127z" />
<glyph unicode="U" horiz-adv-x="1550" d="M57 1282v127h529v-127h-187v-752q0 -403 379 -403q194 0 285.5 103.5t91.5 287.5v764h-184v127h524v-127h-186v-754q0 -268 -135.5 -405t-395.5 -137q-262 0 -399 137t-137 405v754h-185z" />
<glyph unicode="V" horiz-adv-x="1503" d="M-6 1282v127h500v-127h-170l397 -1022l27 -84h14q18 70 24 84l400 1022h-168v127h491v-127h-155l-514 -1282h-176l-512 1282h-158z" />
<glyph unicode="W" horiz-adv-x="2080" d="M-2 1282v127h500v-127h-168l303 -1022l22 -84h15q14 76 16 84l293 1149h131l285 -1149l18 -84h14q21 76 23 84l307 1022h-168v127h494v-127h-158l-414 -1282h-194l-262 1087q-8 28 -8 52h-13q0 -31 -6 -52l-272 -1087h-191l-409 1282h-158z" />
<glyph unicode="X" horiz-adv-x="1513" d="M39 0v127h178l438 569l-438 586h-178v127h532v-127h-178l367 -494l360 494h-176v127h531v-127h-179l-440 -586l438 -569h181v-127h-531v127h172l-360 473l-363 -473h176v-127h-530z" />
<glyph unicode="Y" horiz-adv-x="1382" d="M-2 1282v127h504v-127h-166l350 -594h14l359 594h-170v127h497v-127h-159l-455 -737v-418h186v-127h-532v127h186v418l-456 737h-158z" />
<glyph unicode="Z" horiz-adv-x="1290" d="M100 0v117l887 1159h-762v-221h-123l4 354h1084v-117l-885 -1159h760v221h125l-6 -354h-1084z" />
<glyph unicode="[" horiz-adv-x="679" d="M178 -594v2161h449v-137h-293v-1887h293v-137h-449z" />
<glyph unicode="\" horiz-adv-x="786" d="M55 1599l138 41l538 -1804l-137 -41z" />
<glyph unicode="]" horiz-adv-x="681" d="M57 -457h293v1887h-293v137h447v-2161h-447v137z" />
<glyph unicode="^" horiz-adv-x="839" d="M111 1163l211 383h194l213 -383h-121l-188 254l-189 -254h-120z" />
<glyph unicode="_" horiz-adv-x="1114" d="M131 -41h852v-143h-852v143z" />
<glyph unicode="`" horiz-adv-x="493" d="M55 1473h203l193 -375h-117z" />
<glyph unicode="a" horiz-adv-x="1091" d="M86 262q0 131 115.5 200.5t320.5 69.5h242v80q0 121 -67.5 177.5t-200.5 56.5q-120 0 -185 -52t-65 -135v-20h-142v47q0 54 24.5 103.5t71 91t124.5 66t176 24.5q199 0 308.5 -91t109.5 -274v-479h114v-127h-229l-19 160h-4q-3 -7 -10.5 -19t-37 -42t-67 -52.5 t-104 -41.5t-145.5 -19q-147 0 -238.5 77.5t-91.5 198.5zM238 262q0 -70 59 -113t152 -43q62 0 117 17t89.5 41.5t60.5 49t37 41.5l11 17v150h-232q-133 0 -213.5 -40t-80.5 -120z" />
<glyph unicode="b" horiz-adv-x="1167" d="M23 1401v127h294v-619l-6 -69h6q4 5 11 14t34.5 31.5t61 40t91 31.5t122.5 14q90 0 169.5 -33t140.5 -94t96.5 -155.5t35.5 -209.5q0 -235 -122.5 -364t-317.5 -129q-65 0 -122.5 16t-93.5 39.5t-62.5 46.5t-38.5 39l-11 16h-6l-24 -143h-117v1401h-141zM317 274 q37 -75 116.5 -117t170.5 -42q65 0 122 22.5t102.5 66t71.5 114.5t26 161t-28 161.5t-74.5 114.5t-102 65t-115.5 22q-62 0 -114 -14.5t-86.5 -38.5t-54.5 -43.5t-34 -40.5v-431z" />
<glyph unicode="c" horiz-adv-x="1052" d="M90 479q0 244 125 368t350 124q108 0 189 -28t127.5 -77t69 -108t22.5 -129v-51h-142v30q0 111 -66.5 172.5t-201.5 61.5q-321 0 -321 -363q0 -91 28 -162t76 -114.5t109 -65.5t131 -22q62 0 117.5 10.5t89.5 26t59.5 31t35.5 25.5l11 11l53 -110q-4 -5 -13 -13.5 t-42 -29.5t-72.5 -37t-106.5 -29.5t-143 -13.5q-219 0 -352 130t-133 363z" />
<glyph unicode="d" horiz-adv-x="1198" d="M88 479q0 115 35.5 209.5t96.5 155.5t141 94t171 33q68 0 126 -13.5t92 -32.5t58 -38.5t33 -32.5l9 -14h6q-6 61 -6 69v492h-148v127h302v-1401h141v-127h-258l-23 143h-8q-4 -6 -11.5 -17t-36.5 -38t-63.5 -47.5t-92 -37.5t-122.5 -17q-196 0 -319 129t-123 364z M242 479q0 -177 92.5 -270.5t230.5 -93.5q90 0 168.5 41.5t116.5 117.5v431q-13 20 -32.5 39.5t-53.5 43.5t-86.5 39t-114.5 15q-60 0 -115.5 -22t-102.5 -65t-75 -114.5t-28 -161.5z" />
<glyph unicode="e" horiz-adv-x="1069" d="M88 479q0 232 134 362t347 130q183 0 301.5 -126.5t118.5 -312.5q0 -25 -2.5 -49.5t-4.5 -36.5l-3 -12h-737q13 -157 109.5 -238t236.5 -81q62 0 116.5 10.5t88 26t58.5 31t35 25.5l11 11l55 -110q-5 -5 -14 -13.5t-42.5 -29.5t-73.5 -37t-107.5 -29.5t-143.5 -13.5 q-215 0 -349 130.5t-134 362.5zM240 549h606q-1 75 -26 133.5t-65.5 92t-87 50.5t-96.5 17q-133 0 -226 -77t-105 -216z" />
<glyph unicode="f" horiz-adv-x="716" d="M74 834v122h145v246q0 169 83.5 256.5t236.5 87.5q45 0 86.5 -8t60.5 -16l19 -9v-129q-56 31 -144 31q-188 0 -188 -215v-244h305v-122h-305v-707h211v-127h-506v127h141v707h-145z" />
<glyph unicode="g" horiz-adv-x="1200" d="M90 477q0 235 122.5 364.5t317.5 129.5q65 0 122.5 -16.5t93.5 -40t62.5 -47t37.5 -39.5l12 -17h6l25 145h258v-127h-141v-919q0 -127 -38.5 -223t-107.5 -153.5t-158 -85.5t-196 -28q-80 0 -151 15.5t-115 37.5t-77 44t-47 37l-14 16l68 106q4 -5 11 -13.5t35.5 -30.5 t63 -39t95 -30.5t129.5 -13.5q74 0 134.5 19.5t110.5 60t77.5 112.5t27.5 169v125l4 80h-8q-5 -7 -15 -18t-37 -32t-60.5 -37.5t-88.5 -29t-117 -12.5q-90 0 -169.5 33t-140.5 94t-96.5 155t-35.5 209zM244 477q0 -90 28 -161.5t74 -114t101.5 -64.5t115.5 -22 q62 0 114.5 14.5t86.5 37.5t54 43t34 40v432q-39 75 -118 117.5t-169 42.5q-65 0 -122 -22.5t-102 -66.5t-71 -115t-26 -161z" />
<glyph unicode="h" horiz-adv-x="1214" d="M55 1401v127h295v-557l-10 -180h6q2 7 7 19.5t28.5 43.5t56 54.5t95 43t139.5 19.5q180 0 271 -102t91 -271v-471h142v-127h-295v573q0 265 -246 265q-67 0 -120.5 -21.5t-82.5 -53t-48.5 -62.5t-25.5 -53l-6 -21v-500h137v-127h-432v127h142v1274h-144z" />
<glyph unicode="i" horiz-adv-x="577" d="M82 0v127h141v702h-141v127h295v-829h137v-127h-432zM174 1339q0 49 35 84t84 35q51 0 87 -35t36 -84q0 -52 -36 -87t-87 -35q-50 0 -84.5 35t-34.5 87z" />
<glyph unicode="j" horiz-adv-x="524" d="M-12 -436q104 39 160.5 100t56.5 164v1001h-142v127h295v-1155q0 -78 -26.5 -143t-73 -110.5t-101 -76t-118.5 -49.5zM158 1339q0 50 35 84.5t86 34.5q50 0 85 -35t35 -84q0 -52 -35 -87t-85 -35q-51 0 -86 35t-35 87z" />
<glyph unicode="k" horiz-adv-x="1187" d="M55 0v127h144v1274h-144v127h297v-971h238l229 277h-119v122h433v-122h-148l-278 -338l292 -373h146v-123h-232l-335 436h-226v-309h137v-127h-434z" />
<glyph unicode="l" horiz-adv-x="557" d="M63 0v127h140v1274h-140v127h293v-1401h138v-127h-431z" />
<glyph unicode="m" horiz-adv-x="1880" d="M76 0v127h141v702h-141v127h258l14 -184h6q2 8 7.5 21.5t30 48t58 60.5t97.5 47.5t143 21.5q237 0 324 -178q7 18 18.5 37t37.5 45.5t60 46.5t89.5 34.5t121.5 14.5q180 0 271.5 -102t91.5 -271v-471h141v-127h-295v573q0 124 -58.5 195.5t-186.5 71.5q-179 0 -261 -152 q9 -44 9 -90v-471h141v-127h-295v573q0 124 -59 195.5t-189 71.5q-63 0 -114.5 -21t-80 -47.5t-49.5 -61t-27 -52t-9 -29.5v-502h135v-127h-430z" />
<glyph unicode="n" horiz-adv-x="1230" d="M76 0v127h141v702h-141v127h258l14 -184h6q2 8 7.5 21.5t30 48t58 60.5t97.5 47.5t143 21.5q180 0 271.5 -102t91.5 -271v-471h141v-127h-295v573q0 124 -59 195.5t-189 71.5q-63 0 -114.5 -20.5t-80 -47.5t-49.5 -61t-27.5 -52t-8.5 -30v-502h135v-127h-430z" />
<glyph unicode="o" horiz-adv-x="1128" d="M88 479q0 230 135 361t342 131t342 -131t135 -361q0 -233 -131.5 -363t-345.5 -130t-345.5 130t-131.5 363zM240 479q0 -177 93.5 -270.5t231.5 -93.5q136 0 230 93.5t94 270.5q0 90 -28.5 161.5t-76 114.5t-103.5 65t-116 22t-116.5 -22t-104 -65t-76 -114.5 t-28.5 -161.5z" />
<glyph unicode="p" horiz-adv-x="1200" d="M53 -442h144v1271h-144v127h256l27 -145h6q4 7 12 17.5t37 38t63.5 48.5t92.5 38.5t123 17.5q195 0 317.5 -129.5t122.5 -364.5q0 -115 -35.5 -209t-96.5 -155t-140.5 -94t-169.5 -33q-48 0 -91 7t-74.5 19t-58 25.5t-44.5 27.5t-30 26t-18 19l-6 7h-4q6 -62 6 -70v-510 h166v-106h-461v127zM350 248q14 -20 33.5 -39.5t53.5 -42.5t86 -37t114 -14q60 0 115.5 22t102.5 64.5t75 114t28 161.5q0 177 -92.5 271t-230.5 94q-89 0 -167.5 -41.5t-117.5 -114.5v-438z" />
<glyph unicode="q" horiz-adv-x="1169" d="M90 477q0 235 122.5 364.5t317.5 129.5q65 0 122.5 -16.5t93.5 -39.5t62.5 -46t37.5 -39l12 -17h6l25 143h117v-1398h141v-127h-463v127h168v489l6 70h-6q-4 -5 -11 -14t-34.5 -31.5t-61 -40t-91 -31.5t-122.5 -14q-90 0 -169.5 33t-140.5 94t-96.5 155t-35.5 209z M244 477q0 -90 28 -161.5t74 -114t101.5 -64.5t115.5 -22q62 0 114.5 14.5t86.5 37.5t54 43t34 40v432q-39 75 -118 117.5t-169 42.5q-65 0 -122 -22.5t-102 -66.5t-71 -115t-26 -161z" />
<glyph unicode="r" horiz-adv-x="792" d="M76 0v127h141v702h-141v127h258l14 -243h6q1 5 3.5 14.5t12.5 36.5t23.5 51t38.5 54t55 51.5t76 36t99 14.5q42 0 104 -10v-146q-40 14 -109 14q-49 0 -91 -15.5t-70 -40.5t-51 -55t-36.5 -60t-22.5 -55t-12 -41l-3 -15v-420h155v-127h-450z" />
<glyph unicode="s" horiz-adv-x="976" d="M84 252v59h143v-22q0 -78 65.5 -127t190.5 -49q254 0 254 151q0 35 -20.5 61.5t-61.5 44.5t-81.5 28.5t-100.5 21.5q-52 9 -87.5 17.5t-82.5 23t-77.5 34.5t-59.5 48.5t-43 68.5t-14 90q0 122 103 195.5t265 73.5q200 0 293.5 -72t93.5 -190v-70h-143v45q0 162 -238 162 q-91 0 -157 -38t-66 -108q0 -50 41.5 -82.5t80.5 -43.5t129 -28q16 -3 24 -5q61 -12 106.5 -24.5t95 -35t80.5 -50.5t51.5 -71.5t20.5 -97.5q0 -124 -99 -200t-303 -76q-106 0 -186.5 22t-126.5 60.5t-68 84.5t-22 99z" />
<glyph unicode="t" horiz-adv-x="706" d="M43 834v122h145l27 256h127v-256h303v-122h-303v-517q0 -99 41.5 -149.5t118.5 -50.5q47 0 90 7.5t62 15.5l20 7v-129q-78 -32 -197 -32q-140 0 -214.5 81t-74.5 242v525h-145z" />
<glyph unicode="u" horiz-adv-x="1212" d="M41 829v127h293v-573q0 -124 59 -195t189 -71q46 0 85.5 11t66.5 26.5t50 40t35.5 41.5t23.5 42t13 31.5t6 18.5v501h-135v127h289v-829h141v-127h-258l-16 193h-4q-2 -8 -7.5 -22t-30 -50t-58 -63t-97.5 -49.5t-143 -22.5q-180 0 -271.5 101.5t-91.5 270.5v471h-139z " />
<glyph unicode="v" horiz-adv-x="1167" d="M14 829v127h414v-127h-115l267 -659h12l268 659h-119v127h412v-127h-139l-344 -829h-172l-344 829h-140z" />
<glyph unicode="w" horiz-adv-x="1611" d="M16 829v127h414v-127h-117l203 -659h10l209 786h144l213 -786h8l203 659h-119v127h411v-127h-139l-274 -829h-172l-201 741h-8l-199 -741h-172l-274 829h-140z" />
<glyph unicode="x" horiz-adv-x="1136" d="M45 0v127h121l309 352l-299 350h-131v127h424v-127h-113l215 -256l220 256h-113v127h414v-127h-131l-299 -346l309 -356h121v-127h-424v127h123l-226 262l-227 -262h123v-127h-416z" />
<glyph unicode="y" horiz-adv-x="1163" d="M12 829v127h414v-127h-115l267 -659h12l268 659h-119v127h412v-127h-139l-355 -860q-29 -74 -75 -147.5t-113 -148.5t-163 -140.5t-208 -107.5l-49 135q154 58 282 174t185 248l12 32h-34l-342 815h-140z" />
<glyph unicode="z" horiz-adv-x="1075" d="M100 0v135l684 699h-567v-179h-117v301h877v-114l-696 -719h579v182h117v-305h-877z" />
<glyph unicode="{" horiz-adv-x="638" d="M53 430v113h23q46 0 96.5 66t50.5 173v471q0 87 26 150t72.5 97.5t102 50.5t123.5 16h28v-135h-28q-88 0 -128 -43t-40 -138v-467q0 -51 -14 -97.5t-33.5 -77t-39.5 -53.5t-34 -34l-14 -10v-53q5 -4 14.5 -11t32.5 -32t41 -54t32.5 -76t14.5 -98v-464q0 -95 40 -136 t128 -41h28v-135h-28q-69 0 -124 15t-101.5 49t-72.5 96t-26 149v469q0 104 -51 172t-96 68h-23z" />
<glyph unicode="|" horiz-adv-x="493" d="M172 -586v2142h147v-2142h-147z" />
<glyph unicode="}" horiz-adv-x="638" d="M63 -453h27q90 0 130 41t40 136v464q0 51 13.5 97.5t33 77t39.5 53t34 32.5l13 11v53q-5 4 -14 11t-32 32.5t-40.5 54.5t-32 76t-14.5 98v467q0 95 -40.5 138t-129.5 43h-27v135h27q69 0 125 -16t102.5 -50.5t72.5 -97.5t26 -150v-471q0 -107 49 -173t96 -66h23v-113h-23 q-46 0 -95.5 -67.5t-49.5 -172.5v-469q0 -87 -26 -149t-72.5 -96t-102.5 -49t-125 -15h-27v135z" />
<glyph unicode="~" horiz-adv-x="1021" d="M139 963q56 157 203 157q57 0 116.5 -23t114 -46t99.5 -23q39 0 69 19t64 61l80 -51q-25 -69 -74.5 -113.5t-128.5 -44.5q-55 0 -116 23t-116.5 46t-97.5 23q-39 0 -69 -19t-64 -61z" />
<glyph unicode="&#xa1;" horiz-adv-x="481" d="M137 868q0 41 31 72t72 31t71.5 -31t30.5 -72q0 -42 -30 -72t-72 -30t-72.5 30t-30.5 72zM162 -590l14 1194h127l16 -1194h-157z" />
<glyph unicode="&#xa2;" horiz-adv-x="1099" d="M104 664q0 226 110.5 349t311.5 138v152h125v-152q91 -7 159.5 -37.5t108.5 -78t59 -103t19 -119.5v-72h-139v52q0 112 -67 174.5t-207 62.5q-328 0 -328 -366q0 -91 28.5 -162.5t77.5 -116t111.5 -67.5t132.5 -23q64 0 120 11t90.5 27t60.5 32t37 27l10 11l57 -110 q-4 -4 -12 -11.5t-37.5 -26.5t-64.5 -34.5t-93 -30t-123 -18.5v-174h-125v176q-192 19 -307 147.5t-115 342.5z" />
<glyph unicode="&#xa3;" horiz-adv-x="1243" d="M102 0v117q25 9 60 31t79 57t80 88t48 110h-254v127h247q-14 44 -50.5 101.5t-70 102.5t-60.5 113.5t-27 139.5q0 201 135.5 317.5t361.5 116.5q215 0 345 -105.5t130 -283.5v-55h-159v35q0 121 -87.5 194.5t-236.5 73.5q-67 0 -124 -17t-104 -51.5t-73.5 -95 t-26.5 -141.5q0 -50 17.5 -99t45 -91t56.5 -81.5t55.5 -85.5t38.5 -88h396v-127h-392q-18 -86 -75.5 -163t-126.5 -115h807v-125h-1035z" />
<glyph unicode="&#xa4;" horiz-adv-x="1333" d="M137 166l156 176q-133 143 -133 371q0 223 133 362l-156 180l68 60l157 -180q131 92 304 92q168 0 301 -90l157 178l70 -60l-158 -180q138 -145 138 -362q0 -225 -136 -371l156 -176l-70 -60l-155 177q-132 -93 -303 -93q-178 0 -306 93l-155 -177zM313 711 q0 -175 103.5 -283.5t249.5 -108.5q147 0 249.5 108.5t102.5 283.5q0 174 -104.5 280.5t-247.5 106.5q-142 0 -247.5 -106.5t-105.5 -280.5z" />
<glyph unicode="&#xa5;" horiz-adv-x="1501" d="M57 1282v127h504v-127h-166l350 -594h15l358 594h-170v127h498v-127h-160l-297 -481h197v-125h-275l-80 -131v-33h285v-127h-285v-258h187v-127h-533v127h187v258h-295v127h295v33l-82 131h-279v125h201l-297 481h-158z" />
<glyph unicode="&#xa6;" horiz-adv-x="499" d="M176 344h148v-930h-148v930zM176 631v925h148v-925h-148z" />
<glyph unicode="&#xa7;" horiz-adv-x="1148" d="M113 477q0 85 36 159.5t107 125.5q-143 100 -143 287q0 156 120 264t336 108q208 0 320 -97t112 -259v-78h-157v49q0 50 -15 92t-46 77t-85 55t-127 20q-135 0 -216 -63t-81 -164q0 -57 26.5 -100.5t71 -71.5t102.5 -50t122 -42t128.5 -41.5t122.5 -53.5t102.5 -74 t71 -107t26.5 -148q0 -178 -138 -283q138 -103 138 -289q0 -79 -29 -146.5t-86 -120t-150 -82.5t-213 -30q-113 0 -201 29.5t-141 80t-79.5 113t-26.5 132.5v86h160v-56q0 -112 78 -177.5t206 -65.5q318 0 318 225q0 62 -26.5 109t-71 77t-102 53.5t-121.5 43.5t-128 41.5 t-121.5 52.5t-102 71.5t-71 103.5t-26.5 144zM274 481q0 -51 22 -91.5t54 -66t85 -49t99.5 -38t114 -36t111.5 -38.5q123 55 123 190q0 46 -13.5 83t-41.5 64.5t-58.5 48.5t-77.5 40t-85 31.5t-94.5 31t-92.5 31.5q-69 -29 -107.5 -81.5t-38.5 -119.5z" />
<glyph unicode="&#xa8;" horiz-adv-x="630" d="M49 1184q0 40 27 68t67 28t68.5 -28t28.5 -68t-28.5 -68.5t-68.5 -28.5q-39 0 -66.5 28.5t-27.5 68.5zM387 1184q0 40 28 68t68 28t69.5 -28.5t29.5 -67.5q0 -40 -29.5 -68.5t-69.5 -28.5t-68 28.5t-28 68.5z" />
<glyph unicode="&#xa9;" horiz-adv-x="1429" d="M106 713q0 162 83 302.5t223.5 223t302.5 82.5q121 0 233.5 -49t194.5 -131t131 -194.5t49 -233.5q0 -162 -82.5 -302.5t-223 -223.5t-302.5 -83t-302.5 83t-223.5 223.5t-83 302.5zM178 713q0 -146 72 -269.5t195.5 -195.5t269.5 -72t269.5 72t195 195.5t71.5 269.5 t-71.5 269.5t-195 195t-269.5 71.5t-269.5 -71.5t-195.5 -195t-72 -269.5zM371 719q0 164 101 262t245 98q55 0 103.5 -14t78.5 -33t55.5 -45.5t36.5 -43t19 -32.5l-80 -53q-67 115 -213 115q-97 0 -164.5 -65t-67.5 -187q0 -124 68 -190t170 -66q41 0 75 9t52 17.5 t38.5 30.5t24.5 27.5t19 28.5l78 -52q-9 -17 -19.5 -33t-35.5 -42.5t-55 -45t-78.5 -33t-104.5 -14.5q-144 0 -245 98.5t-101 262.5z" />
<glyph unicode="&#xaa;" horiz-adv-x="784" d="M102 1049q0 80 72.5 121.5t198.5 41.5h141v48q0 71 -38.5 102t-115.5 31q-67 0 -103 -25.5t-36 -69.5v-20h-94v37q0 69 60.5 118.5t174.5 49.5q123 0 189.5 -55t66.5 -168v-244q0 -51 31 -51q9 0 16.5 1.5t10.5 3.5l4 1v-78q-14 -10 -59 -10q-91 0 -91 94v6h-4 q-2 -4 -7 -11t-23.5 -24t-41.5 -30t-62.5 -24t-84.5 -11q-89 0 -147 47t-58 119zM207 1057q0 -40 33.5 -66t87.5 -26q122 0 186 96v78h-135q-77 0 -124.5 -20t-47.5 -62z" />
<glyph unicode="&#xab;" horiz-adv-x="976" d="M100 438v107l289 338l109 -86l-258 -305l258 -306l-109 -86zM489 438v107l289 338l109 -86l-258 -305l258 -306l-109 -86z" />
<glyph unicode="&#xac;" horiz-adv-x="1259" d="M131 666v129h989v-506h-145v377h-844z" />
<glyph unicode="&#xad;" horiz-adv-x="948" d="M133 526v144h682v-144h-682z" />
<glyph unicode="&#xae;" horiz-adv-x="1429" d="M106 713q0 162 83 302.5t223.5 223t302.5 82.5q121 0 233.5 -49t194.5 -131t131 -194.5t49 -233.5q0 -162 -82.5 -302.5t-223 -223.5t-302.5 -83t-302.5 83t-223.5 223.5t-83 302.5zM178 713q0 -146 72 -269.5t195.5 -195.5t269.5 -72t269.5 72t195 195.5t71.5 269.5 t-71.5 269.5t-195 195t-269.5 71.5t-269.5 -71.5t-195.5 -195t-72 -269.5zM434 387v82h78v506h-78v82h281q111 0 178.5 -51t67.5 -154q0 -69 -37 -115t-105 -63q12 -14 39 -66l74 -139h74v-82h-129l-146 275h-129v-193h92v-82h-260zM602 733h111q149 0 149 113 q0 61 -39.5 94t-109.5 33h-111v-240z" />
<glyph unicode="&#xaf;" horiz-adv-x="798" d="M78 1112v129h647v-129h-647z" />
<glyph unicode="&#xb0;" horiz-adv-x="542" d="M115 1016q0 70 45 117t110 47q66 0 112 -47t46 -117q0 -81 -45.5 -124.5t-112.5 -43.5q-66 0 -110.5 43.5t-44.5 124.5zM188 1016q0 -45 24.5 -70.5t57.5 -25.5q35 0 59.5 25.5t24.5 70.5q0 42 -24 67t-60 25q-35 0 -58.5 -25t-23.5 -67z" />
<glyph unicode="&#xb1;" horiz-adv-x="1216" d="M145 133v129h926v-129h-926zM145 715v129h400v362h147v-362h379v-129h-379v-355h-147v355h-400z" />
<glyph unicode="&#xb2;" horiz-adv-x="790" d="M121 1180v37q0 84 65.5 144t194.5 60q134 0 204 -65.5t70 -173.5q0 -76 -36.5 -143.5t-97.5 -115t-89 -65.5t-62 -35l-3 -2h286v-114h-510v92q8 4 21.5 10.5t53 28t75.5 44t79.5 57t75 68.5t53 76.5t21.5 83.5q0 61 -37 97t-104 36t-103 -31t-36 -73v-16h-121z" />
<glyph unicode="&#xb3;" horiz-adv-x="749" d="M100 813l70 86l6 -7q6 -7 13 -14t19 -17t27 -18t33.5 -15.5t43 -12t50.5 -4.5q70 0 109 28t39 74q0 43 -30 69t-89 26h-94v100h86q16 0 31.5 3.5t34 13.5t29.5 32.5t11 54.5q0 35 -31 63t-89 28q-63 0 -94 -24t-31 -56v-19h-117v39q0 77 67.5 127.5t176.5 50.5 q127 0 189.5 -57t62.5 -139q0 -36 -11.5 -65.5t-27.5 -46t-32.5 -28.5t-27.5 -16l-12 -4v-6q5 -1 14 -3t31.5 -12.5t40 -26t31.5 -46t14 -68.5q0 -96 -75.5 -153.5t-205.5 -57.5q-164 0 -259 118z" />
<glyph unicode="&#xb4;" horiz-adv-x="583" d="M104 1098l195 375h201l-277 -375h-119z" />
<glyph unicode="&#xb5;" horiz-adv-x="1265" d="M70 829v127h292v-573q0 -124 59 -195t189 -71q53 0 97.5 13.5t74 37.5t50 46t34 51.5t17.5 39t8 23.5v501h-135v127h288v-829h142v-127h-258l-17 193h-4q-2 -8 -7.5 -22t-30 -50t-58 -63t-97.5 -49.5t-143 -22.5q-127 0 -209 51v-576h-151l-2 1368h-139z" />
<glyph unicode="&#xb6;" horiz-adv-x="1288" d="M61 973q0 208 134 322t348 114h680v-127h-183v-1444h-120v1438h-140v-1438h-114v690h-101q-241 0 -372.5 114t-131.5 331z" />
<glyph unicode="&#xb7;" horiz-adv-x="448" d="M125 590q0 42 29 70t69 28q42 0 70.5 -28t28.5 -70q0 -40 -29 -68t-70 -28q-40 0 -69 28t-29 68z" />
<glyph unicode="&#xb8;" horiz-adv-x="479" d="M55 -289l58 74l5 -5q6 -5 16 -11.5t22.5 -13.5t31 -12t37.5 -5q46 0 71.5 18.5t25.5 50.5q0 30 -23 50t-63 20q-14 0 -26.5 -3t-17.5 -6l-6 -3l-36 26l59 127h100l-39 -79q22 0 45.5 -6t49.5 -20t42.5 -44t16.5 -72q0 -71 -53 -110t-142 -39q-49 0 -92.5 16t-62.5 32z " />
<glyph unicode="&#xb9;" horiz-adv-x="704" d="M113 1257l233 150h98v-592h162v-110h-465v110h185v447l-162 -88z" />
<glyph unicode="&#xba;" horiz-adv-x="768" d="M98 1180q0 142 80.5 222.5t206.5 80.5q123 0 205 -81t82 -222q0 -140 -79 -218.5t-208 -78.5t-208 78.5t-79 218.5zM201 1180q0 -100 53 -153.5t131 -53.5q75 0 128.5 53.5t53.5 153.5q0 102 -55.5 156.5t-126.5 54.5q-74 0 -129 -54t-55 -157z" />
<glyph unicode="&#xbb;" horiz-adv-x="976" d="M90 186l258 306l-258 305l107 86l290 -338v-107l-290 -338zM479 186l258 306l-258 305l107 86l291 -338v-107l-291 -338z" />
<glyph unicode="&#xbc;" horiz-adv-x="1488" d="M82 1257l233 150h105v-592h158v-110h-465v110h180v436l-160 -86zM311 2l875 1530l106 -64l-876 -1529zM852 170v86l330 446h145v-419h88v-113h-88v-170h-123v170h-352zM995 279h209v280z" />
<glyph unicode="&#xbd;" horiz-adv-x="1576" d="M82 1257l233 150h105v-592h158v-110h-465v110h180v436l-160 -86zM311 2l875 1530l106 -64l-876 -1529zM954 473v37q0 84 65.5 144.5t194.5 60.5q134 0 204.5 -66t70.5 -174q0 -52 -18 -100.5t-49.5 -86.5t-62 -67.5t-68 -53t-54.5 -33t-33 -17.5l-4 -2h287v-115h-510v92 q8 4 21.5 10.5t53 28t75.5 44.5t79.5 57.5t75 68.5t53 76.5t21.5 83.5q0 61 -37.5 97t-104.5 36t-103 -31.5t-36 -73.5v-16h-121z" />
<glyph unicode="&#xbe;" d="M78 813l69 86l5 -6q5 -6 10.5 -11.5t15.5 -14t20.5 -15.5t26 -15t32 -13.5t38.5 -9t45 -3.5q70 0 108.5 28t38.5 74q0 43 -29.5 69t-88.5 26h-95v100h86q16 0 32 3.5t34 13.5t29.5 32.5t11.5 54.5q0 35 -31.5 63t-89.5 28q-63 0 -94 -24t-31 -56v-19h-117v39 q0 77 67.5 127.5t176.5 50.5q127 0 189.5 -57t62.5 -139q0 -36 -11.5 -65.5t-28 -46t-32.5 -28.5t-28 -16l-11 -4v-6q5 -1 14 -3t32 -12.5t40 -26t31.5 -46t14.5 -68.5q0 -96 -75.5 -153.5t-205.5 -57.5q-164 0 -259 118zM313 2l875 1530l106 -64l-876 -1529zM854 170v86 l330 446h147v-419h86v-113h-86v-170h-125v170h-352zM997 279h209v280z" />
<glyph unicode="&#xbf;" horiz-adv-x="1028" d="M68 -150q0 91 33 171.5t81 134.5t106.5 96.5t105.5 64t83 29.5v213h137v-303q-47 0 -98 -15.5t-102 -49.5t-91.5 -81t-66 -116t-25.5 -148q0 -132 76.5 -211t212.5 -79q143 0 215 81t72 209v17h162v-51q0 -75 -26.5 -144t-78.5 -127t-140.5 -92.5t-201.5 -34.5 q-218 0 -336 120t-118 316zM442 868q0 43 31 73t74 30q42 0 71 -30t29 -73t-29 -73.5t-71 -30.5q-43 0 -74 30.5t-31 73.5z" />
<glyph unicode="&#xc0;" d="M-2 0v127h154l456 1155h-170v127h402l510 -1282h157v-127h-493v127h170l-137 350h-598l-136 -350h168v-127h-483zM444 1874h203l193 -375h-117zM502 612h491l-209 539l-28 82h-15q-24 -70 -28 -82z" />
<glyph unicode="&#xc1;" d="M-2 0v127h154l456 1155h-170v127h402l510 -1282h157v-127h-493v127h170l-137 350h-598l-136 -350h168v-127h-483zM502 612h491l-209 539l-28 82h-15q-24 -70 -28 -82zM653 1497l195 375h201l-277 -375h-119z" />
<glyph unicode="&#xc2;" d="M-2 0v127h154l456 1155h-170v127h402l510 -1282h157v-127h-493v127h170l-137 350h-598l-136 -350h168v-127h-483zM432 1499l209 375h197l209 -375h-117l-191 254l-190 -254h-117zM502 612h491l-209 539l-28 82h-15q-24 -70 -28 -82z" />
<glyph unicode="&#xc3;" d="M-2 0v127h154l456 1155h-170v127h402l510 -1282h157v-127h-493v127h170l-137 350h-598l-136 -350h168v-127h-483zM385 1554q25 69 74.5 113.5t128.5 44.5q70 0 174 -46t156 -46q39 0 68 18.5t65 61.5l79 -51q-56 -158 -202 -158q-55 0 -116 23t-116.5 46t-97.5 23 q-39 0 -69 -19t-64 -61zM502 612h491l-209 539l-28 82h-15q-24 -70 -28 -82z" />
<glyph unicode="&#xc4;" d="M-2 0v127h154l456 1155h-170v127h402l510 -1282h157v-127h-493v127h170l-137 350h-598l-136 -350h168v-127h-483zM487 1589q0 40 27.5 68.5t67.5 28.5t68 -28.5t28 -68.5t-28 -68t-68 -28t-67.5 28t-27.5 68zM502 612h491l-209 539l-28 82h-15q-24 -70 -28 -82zM825 1589 q0 40 28.5 68.5t68.5 28.5t69 -28.5t29 -68.5t-29 -68t-69 -28t-68.5 28t-28.5 68z" />
<glyph unicode="&#xc5;" d="M-2 0v127h154l456 1155h-170v127h402l510 -1282h157v-127h-493v127h170l-137 350h-598l-136 -350h168v-127h-483zM502 612h491l-209 539l-28 82h-15q-24 -70 -28 -82zM559 1665q0 75 53.5 128.5t128.5 53.5t129 -53.5t54 -128.5t-54 -128.5t-129 -53.5t-128.5 53.5 t-53.5 128.5zM659 1665q0 -35 23.5 -58.5t58.5 -23.5t58.5 23.5t23.5 58.5q0 34 -23.5 58t-58.5 24t-58.5 -24t-23.5 -58z" />
<glyph unicode="&#xc6;" horiz-adv-x="2031" d="M-12 0v106l153 21l559 1157l-157 19v106h1378l6 -354h-127l-18 221h-600v-496h520v-135h-520v-512h598l20 219h125l-6 -352h-1077v106l182 21v350h-545l-176 -350l170 -21v-106h-485zM547 612h477v668h-162z" />
<glyph unicode="&#xc7;" horiz-adv-x="1347" d="M98 696q0 360 165 542.5t454 182.5q239 0 387.5 -124t148.5 -330v-66h-157v47q0 105 -51.5 181.5t-134.5 113.5t-187 37q-105 0 -187.5 -33t-144.5 -101.5t-95.5 -182.5t-33.5 -269q0 -567 461 -567q362 0 362 307h162v-20q0 -193 -128.5 -305t-364.5 -121l-23 -49 q22 0 45.5 -6t49.5 -20t42.5 -44t16.5 -72q0 -71 -53 -110t-142 -39q-49 0 -92.5 16t-62.5 32l-19 15l57 74l5 -5q6 -5 16 -11.5t23 -13.5t31.5 -12t37.5 -5q46 0 71 18.5t25 50.5q0 30 -23 50t-63 20q-14 0 -26 -3t-18 -6l-5 -3l-37 26l45 97q-263 18 -410 195.5 t-147 512.5z" />
<glyph unicode="&#xc8;" horiz-adv-x="1280" d="M90 0v127h182v1155h-182v127h1079l7 -354h-129v221h-617v-496h520v-135h-520v-512h619v219h125l-7 -352h-1077zM420 1872h203l192 -375h-117z" />
<glyph unicode="&#xc9;" horiz-adv-x="1280" d="M90 0v127h182v1155h-182v127h1079l7 -354h-129v221h-617v-496h520v-135h-520v-512h619v219h125l-7 -352h-1077zM537 1497l194 375h201l-277 -375h-118z" />
<glyph unicode="&#xca;" horiz-adv-x="1280" d="M90 0v127h182v1155h-182v127h1079l7 -354h-129v221h-617v-496h520v-135h-520v-512h619v219h125l-7 -352h-1077zM369 1497l209 375h196l209 -375h-117l-190 254l-191 -254h-116z" />
<glyph unicode="&#xcb;" horiz-adv-x="1280" d="M90 0v127h182v1155h-182v127h1079l7 -354h-129v221h-617v-496h520v-135h-520v-512h619v219h125l-7 -352h-1077zM430 1589q0 40 27.5 68.5t66.5 28.5q40 0 68.5 -28.5t28.5 -68.5t-28.5 -68t-68.5 -28t-67 28t-27 68zM768 1589q0 40 28 68.5t68 28.5t69.5 -28.5 t29.5 -68.5q0 -39 -29.5 -67.5t-69.5 -28.5t-68 28t-28 68z" />
<glyph unicode="&#xcc;" horiz-adv-x="704" d="M33 1874h203l192 -375h-117zM90 0v127h182v1155h-182v127h526v-127h-186v-1155h186v-127h-526z" />
<glyph unicode="&#xcd;" horiz-adv-x="704" d="M90 0v127h182v1155h-182v127h526v-127h-186v-1155h186v-127h-526zM236 1497l194 375h201l-277 -375h-118z" />
<glyph unicode="&#xce;" horiz-adv-x="704" d="M39 1499l209 375h196l209 -375h-116l-191 254l-190 -254h-117zM90 0v127h182v1155h-182v127h526v-127h-186v-1155h186v-127h-526z" />
<glyph unicode="&#xcf;" horiz-adv-x="704" d="M90 0v127h182v1155h-182v127h526v-127h-186v-1155h186v-127h-526zM94 1589q0 40 27.5 68.5t66.5 28.5q40 0 68.5 -28.5t28.5 -68.5t-28.5 -68t-68.5 -28t-67 28t-27 68zM432 1589q0 40 28 68.5t68 28.5t69.5 -28.5t29.5 -68.5q0 -39 -29.5 -67.5t-69.5 -28.5t-68 28 t-28 68z" />
<glyph unicode="&#xd0;" horiz-adv-x="1492" d="M92 0v127h182v520h-170v127h170v508h-182v127h580q350 0 535.5 -175t185.5 -536q0 -180 -48 -314t-139 -218t-217.5 -125t-288.5 -41h-608zM432 133h246q288 0 420.5 143t132.5 422q0 285 -138 431.5t-442 146.5h-219v-502h346v-127h-346v-514z" />
<glyph unicode="&#xd1;" horiz-adv-x="1675" d="M90 0v127h182v1155h-182v127h354l809 -1182h9v1055h-185v127h527v-127h-185v-1282h-188l-795 1157h-6v-1030h186v-127h-526zM479 1565q56 157 203 157q70 0 174 -46t156 -46q39 0 68 18.5t65 61.5l80 -51q-25 -69 -74.5 -113.5t-128.5 -44.5q-55 0 -116 23t-116.5 46 t-97.5 23q-39 0 -69 -19t-64 -61z" />
<glyph unicode="&#xd2;" horiz-adv-x="1445" d="M104 694q0 361 164.5 544t454.5 183q291 0 455.5 -183t164.5 -544q0 -353 -164.5 -530.5t-455.5 -177.5q-290 0 -454.5 177.5t-164.5 530.5zM268 694q0 -567 455 -567q457 0 457 567q0 155 -33.5 269t-95 182.5t-143.5 101.5t-185 33t-184.5 -33t-143 -101.5 t-94.5 -182.5t-33 -269zM451 1872h202l193 -375h-117z" />
<glyph unicode="&#xd3;" horiz-adv-x="1445" d="M104 694q0 361 164.5 544t454.5 183q291 0 455.5 -183t164.5 -544q0 -353 -164.5 -530.5t-455.5 -177.5q-290 0 -454.5 177.5t-164.5 530.5zM268 694q0 -567 455 -567q457 0 457 567q0 155 -33.5 269t-95 182.5t-143.5 101.5t-185 33t-184.5 -33t-143 -101.5 t-94.5 -182.5t-33 -269zM592 1497l194 375h201l-276 -375h-119z" />
<glyph unicode="&#xd4;" horiz-adv-x="1445" d="M104 694q0 361 164.5 544t454.5 183q291 0 455.5 -183t164.5 -544q0 -353 -164.5 -530.5t-455.5 -177.5q-290 0 -454.5 177.5t-164.5 530.5zM268 694q0 -567 455 -567q457 0 457 567q0 155 -33.5 269t-95 182.5t-143.5 101.5t-185 33t-184.5 -33t-143 -101.5 t-94.5 -182.5t-33 -269zM424 1497l209 375h196l209 -375h-116l-191 254l-190 -254h-117z" />
<glyph unicode="&#xd5;" horiz-adv-x="1445" d="M104 694q0 361 164.5 544t454.5 183q291 0 455.5 -183t164.5 -544q0 -353 -164.5 -530.5t-455.5 -177.5q-290 0 -454.5 177.5t-164.5 530.5zM268 694q0 -567 455 -567q457 0 457 567q0 155 -33.5 269t-95 182.5t-143.5 101.5t-185 33t-184.5 -33t-143 -101.5 t-94.5 -182.5t-33 -269zM342 1565q56 157 203 157q69 0 173 -46t156 -46q39 0 68.5 18.5t65.5 61.5l79 -51q-56 -158 -202 -158q-55 0 -116 23t-116.5 46t-97.5 23q-39 0 -69 -19t-64 -61z" />
<glyph unicode="&#xd6;" horiz-adv-x="1445" d="M104 694q0 361 164.5 544t454.5 183q291 0 455.5 -183t164.5 -544q0 -353 -164.5 -530.5t-455.5 -177.5q-290 0 -454.5 177.5t-164.5 530.5zM268 694q0 -567 455 -567q457 0 457 567q0 155 -33.5 269t-95 182.5t-143.5 101.5t-185 33t-184.5 -33t-143 -101.5 t-94.5 -182.5t-33 -269zM453 1587q0 40 27 68t67 28t68 -28t28 -68t-28 -68t-68 -28t-67 28t-27 68zM791 1587q0 40 28 68t68 28t69 -28t29 -68t-29 -68t-69 -28t-68 28t-28 68z" />
<glyph unicode="&#xd7;" horiz-adv-x="1075" d="M104 150l347 350l-347 350l89 86l346 -350l346 350l86 -86l-346 -350l346 -350l-86 -87l-346 349l-346 -349z" />
<glyph unicode="&#xd8;" horiz-adv-x="1445" d="M104 694q0 361 164.5 544t454.5 183q136 0 248 -41l55 113l131 -63l-57 -119q243 -181 243 -617q0 -353 -164.5 -530.5t-455.5 -177.5q-137 0 -252 41l-61 -127l-131 63l63 133q-238 174 -238 598zM268 694q0 -317 144 -458l493 1011q-79 33 -182 33t-184.5 -33 t-143 -101.5t-94.5 -182.5t-33 -269zM535 158q77 -31 188 -31q457 0 457 567q0 326 -150 473z" />
<glyph unicode="&#xd9;" horiz-adv-x="1550" d="M57 1282v127h529v-127h-187v-752q0 -403 379 -403q194 0 285.5 103.5t91.5 287.5v764h-184v127h524v-127h-186v-754q0 -268 -135.5 -405t-395.5 -137q-262 0 -399 137t-137 405v754h-185zM524 1872h203l193 -375h-117z" />
<glyph unicode="&#xda;" horiz-adv-x="1550" d="M57 1282v127h529v-127h-187v-752q0 -403 379 -403q194 0 285.5 103.5t91.5 287.5v764h-184v127h524v-127h-186v-754q0 -268 -135.5 -405t-395.5 -137q-262 0 -399 137t-137 405v754h-185zM618 1556l195 375h201l-277 -375h-119z" />
<glyph unicode="&#xdb;" horiz-adv-x="1550" d="M57 1282v127h529v-127h-187v-752q0 -403 379 -403q194 0 285.5 103.5t91.5 287.5v764h-184v127h524v-127h-186v-754q0 -268 -135.5 -405t-395.5 -137q-262 0 -399 137t-137 405v754h-185zM453 1561l209 374h196l209 -374h-117l-190 254l-191 -254h-116z" />
<glyph unicode="&#xdc;" horiz-adv-x="1550" d="M57 1282v127h529v-127h-187v-752q0 -403 379 -403q194 0 285.5 103.5t91.5 287.5v764h-184v127h524v-127h-186v-754q0 -268 -135.5 -405t-395.5 -137q-262 0 -399 137t-137 405v754h-185zM518 1593q0 40 27.5 68.5t66.5 28.5q40 0 68.5 -28.5t28.5 -68.5t-28.5 -68 t-68.5 -28t-67 28t-27 68zM856 1593q0 40 28 68.5t68 28.5t69.5 -28.5t29.5 -68.5q0 -39 -29.5 -67.5t-69.5 -28.5t-68 28t-28 68z" />
<glyph unicode="&#xdd;" horiz-adv-x="1382" d="M-2 1282v127h504v-127h-166l350 -594h14l359 594h-170v127h497v-127h-159l-455 -737v-418h186v-127h-532v127h186v418l-456 737h-158zM528 1561l195 374h201l-277 -374h-119z" />
<glyph unicode="&#xde;" horiz-adv-x="1271" d="M90 0v127h182v1155h-182v127h340v-195h293q212 0 346.5 -114.5t134.5 -321.5q0 -218 -131 -331t-375 -113h-268v-207h229v-127h-569zM430 469h260q354 0 354 307q0 80 -28.5 140t-79 94.5t-111.5 51.5t-133 17h-262v-610z" />
<glyph unicode="&#xdf;" horiz-adv-x="1277" d="M53 0v127h144v948q0 231 120 351t322 120q191 0 304.5 -100t113.5 -260q0 -70 -20.5 -126.5t-49.5 -91.5t-57.5 -65.5t-49 -65t-20.5 -73.5q0 -34 19 -62t49.5 -50t67.5 -44.5t74 -51.5t67.5 -65.5t49.5 -92.5t19 -126q0 -135 -99.5 -210.5t-260.5 -75.5q-42 0 -83.5 7.5 t-70.5 17.5t-52 20.5t-34 18.5l-12 7l24 123q8 -7 23.5 -18t69.5 -29t114 -18q106 0 167 51t61 125q0 52 -19 93.5t-49.5 68.5t-67 50.5t-73 46.5t-67 50t-49.5 67t-19 91q0 49 20 90.5t49 72t58 63t49 79t20 104.5q0 49 -14 91.5t-43.5 79t-82 58t-122.5 21.5 q-135 0 -214 -89t-79 -261v-940h129v-127h-426z" />
<glyph unicode="&#xe0;" horiz-adv-x="1091" d="M86 262q0 131 115.5 200.5t320.5 69.5h242v80q0 121 -67.5 177.5t-200.5 56.5q-120 0 -185 -52t-65 -135v-20h-142v47q0 54 24.5 103.5t71 91t124.5 66t176 24.5q199 0 308.5 -91t109.5 -274v-479h114v-127h-229l-19 160h-4q-3 -7 -10.5 -19t-37 -42t-67 -52.5 t-104 -41.5t-145.5 -19q-147 0 -238.5 77.5t-91.5 198.5zM238 262q0 -70 59 -113t152 -43q62 0 117 17t89.5 41.5t60.5 49t37 41.5l11 17v150h-232q-133 0 -213.5 -40t-80.5 -120zM283 1473h202l193 -375h-117z" />
<glyph unicode="&#xe1;" horiz-adv-x="1091" d="M86 262q0 131 115.5 200.5t320.5 69.5h242v80q0 121 -67.5 177.5t-200.5 56.5q-120 0 -185 -52t-65 -135v-20h-142v47q0 54 24.5 103.5t71 91t124.5 66t176 24.5q199 0 308.5 -91t109.5 -274v-479h114v-127h-229l-19 160h-4q-3 -7 -10.5 -19t-37 -42t-67 -52.5 t-104 -41.5t-145.5 -19q-147 0 -238.5 77.5t-91.5 198.5zM238 262q0 -70 59 -113t152 -43q62 0 117 17t89.5 41.5t60.5 49t37 41.5l11 17v150h-232q-133 0 -213.5 -40t-80.5 -120zM440 1098l195 375h201l-277 -375h-119z" />
<glyph unicode="&#xe2;" horiz-adv-x="1091" d="M86 262q0 131 115.5 200.5t320.5 69.5h242v80q0 121 -67.5 177.5t-200.5 56.5q-120 0 -185 -52t-65 -135v-20h-142v47q0 54 24.5 103.5t71 91t124.5 66t176 24.5q199 0 308.5 -91t109.5 -274v-479h114v-127h-229l-19 160h-4q-3 -7 -10.5 -19t-37 -42t-67 -52.5 t-104 -41.5t-145.5 -19q-147 0 -238.5 77.5t-91.5 198.5zM238 262q0 -70 59 -113t152 -43q62 0 117 17t89.5 41.5t60.5 49t37 41.5l11 17v150h-232q-133 0 -213.5 -40t-80.5 -120zM246 1098l209 375h196l209 -375h-117l-190 254l-191 -254h-116z" />
<glyph unicode="&#xe3;" horiz-adv-x="1091" d="M86 262q0 131 115.5 200.5t320.5 69.5h242v80q0 121 -67.5 177.5t-200.5 56.5q-120 0 -185 -52t-65 -135v-20h-142v47q0 54 24.5 103.5t71 91t124.5 66t176 24.5q199 0 308.5 -91t109.5 -274v-479h114v-127h-229l-19 160h-4q-3 -7 -10.5 -19t-37 -42t-67 -52.5 t-104 -41.5t-145.5 -19q-147 0 -238.5 77.5t-91.5 198.5zM178 1139q56 157 203 157q56 0 115.5 -23t114.5 -46t100 -23q39 0 68 18.5t65 61.5l80 -51q-25 -69 -74.5 -113.5t-128.5 -44.5q-55 0 -116 23t-116.5 46t-97.5 23q-39 0 -69 -19t-64 -61zM238 262q0 -70 59 -113 t152 -43q62 0 117 17t89.5 41.5t60.5 49t37 41.5l11 17v150h-232q-133 0 -213.5 -40t-80.5 -120z" />
<glyph unicode="&#xe4;" horiz-adv-x="1091" d="M86 262q0 131 115.5 200.5t320.5 69.5h242v80q0 121 -67.5 177.5t-200.5 56.5q-120 0 -185 -52t-65 -135v-20h-142v47q0 54 24.5 103.5t71 91t124.5 66t176 24.5q199 0 308.5 -91t109.5 -274v-479h114v-127h-229l-19 160h-4q-3 -7 -10.5 -19t-37 -42t-67 -52.5 t-104 -41.5t-145.5 -19q-147 0 -238.5 77.5t-91.5 198.5zM238 262q0 -70 59 -113t152 -43q62 0 117 17t89.5 41.5t60.5 49t37 41.5l11 17v150h-232q-133 0 -213.5 -40t-80.5 -120zM281 1184q0 40 27 68t67 28t68 -28t28 -68t-28 -68.5t-68 -28.5q-39 0 -66.5 28.5 t-27.5 68.5zM618 1184q0 40 28.5 68t68.5 28t69 -28t29 -68t-29 -68.5t-69 -28.5t-68.5 28.5t-28.5 68.5z" />
<glyph unicode="&#xe5;" horiz-adv-x="1091" d="M86 262q0 131 115.5 200.5t320.5 69.5h242v80q0 121 -67.5 177.5t-200.5 56.5q-120 0 -185 -52t-65 -135v-20h-142v47q0 54 24.5 103.5t71 91t124.5 66t176 24.5q199 0 308.5 -91t109.5 -274v-479h114v-127h-229l-19 160h-4q-3 -7 -10.5 -19t-37 -42t-67 -52.5 t-104 -41.5t-145.5 -19q-147 0 -238.5 77.5t-91.5 198.5zM238 262q0 -70 59 -113t152 -43q62 0 117 17t89.5 41.5t60.5 49t37 41.5l11 17v150h-232q-133 0 -213.5 -40t-80.5 -120zM360 1260q0 75 54 128.5t129 53.5t128.5 -53.5t53.5 -128.5t-53.5 -129t-128.5 -54t-129 54 t-54 129zM461 1260q0 -35 23.5 -58.5t58.5 -23.5t58.5 23.5t23.5 58.5q0 34 -23.5 57.5t-58.5 23.5t-58.5 -23.5t-23.5 -57.5z" />
<glyph unicode="&#xe6;" horiz-adv-x="1728" d="M86 262q0 131 115.5 200.5t320.5 69.5h242v80q0 121 -67.5 177.5t-200.5 56.5q-120 0 -185 -52t-65 -135v-20h-142v47q0 54 24.5 103.5t71 91t124.5 66t176 24.5q270 0 368 -164q61 79 154.5 121.5t206.5 42.5q183 0 301.5 -126.5t118.5 -312.5q0 -25 -2.5 -49.5 t-5.5 -36.5l-3 -12h-716q13 -157 103.5 -238t221.5 -81q62 0 116.5 10.5t88 26t58.5 31t36 25.5l10 11l56 -110q-5 -5 -14 -13.5t-42.5 -29.5t-73.5 -37t-107.5 -29.5t-143.5 -13.5q-123 0 -224.5 57t-162.5 158h-2q-4 -9 -12 -23.5t-42 -51.5t-77.5 -65.5t-122 -51.5 t-172.5 -23q-147 0 -238.5 77.5t-91.5 198.5zM238 262q0 -70 59 -113t152 -43q62 0 117 17t89.5 41.5t60.5 49t37 41.5l11 17v150h-232q-133 0 -213.5 -40t-80.5 -120zM920 549h585q-1 75 -26 133.5t-65 92t-86.5 50.5t-96.5 17q-124 0 -211.5 -77t-99.5 -216z" />
<glyph unicode="&#xe7;" horiz-adv-x="1050" d="M90 479q0 244 125 368t350 124q108 0 189 -28t127.5 -77t69 -108t22.5 -129v-51h-142v30q0 111 -66.5 172.5t-201.5 61.5q-321 0 -321 -363q0 -91 28 -162t76 -114.5t109 -65.5t131 -22q62 0 117.5 10.5t89.5 26t59.5 31t35.5 25.5l11 11l53 -110q-4 -5 -12.5 -13 t-39.5 -28.5t-68 -36.5t-100 -29.5t-134 -15.5l-23 -47q22 0 45.5 -6t49.5 -20t42.5 -44t16.5 -72q0 -71 -52.5 -110t-141.5 -39q-49 0 -93 16t-63 32l-19 15l58 74l6 -5q5 -5 15 -11.5t22.5 -13.5t31 -12t37.5 -5q46 0 71.5 18.5t25.5 50.5q0 30 -23 50t-63 20 q-14 0 -26 -3t-17 -6l-6 -3l-37 26l45 99q-188 22 -299 149.5t-111 339.5z" />
<glyph unicode="&#xe8;" horiz-adv-x="1069" d="M88 479q0 232 134 362t347 130q183 0 301.5 -126.5t118.5 -312.5q0 -25 -2.5 -49.5t-4.5 -36.5l-3 -12h-737q13 -157 109.5 -238t236.5 -81q62 0 116.5 10.5t88 26t58.5 31t35 25.5l11 11l55 -110q-5 -5 -14 -13.5t-42.5 -29.5t-73.5 -37t-107.5 -29.5t-143.5 -13.5 q-215 0 -349 130.5t-134 362.5zM240 549h606q-1 75 -26 133.5t-65.5 92t-87 50.5t-96.5 17q-133 0 -226 -77t-105 -216zM274 1473h203l193 -375h-117z" />
<glyph unicode="&#xe9;" horiz-adv-x="1069" d="M88 479q0 232 134 362t347 130q183 0 301.5 -126.5t118.5 -312.5q0 -25 -2.5 -49.5t-4.5 -36.5l-3 -12h-737q13 -157 109.5 -238t236.5 -81q62 0 116.5 10.5t88 26t58.5 31t35 25.5l11 11l55 -110q-5 -5 -14 -13.5t-42.5 -29.5t-73.5 -37t-107.5 -29.5t-143.5 -13.5 q-215 0 -349 130.5t-134 362.5zM240 549h606q-1 75 -26 133.5t-65.5 92t-87 50.5t-96.5 17q-133 0 -226 -77t-105 -216zM412 1098l194 375h201l-277 -375h-118z" />
<glyph unicode="&#xea;" horiz-adv-x="1069" d="M88 479q0 232 134 362t347 130q183 0 301.5 -126.5t118.5 -312.5q0 -25 -2.5 -49.5t-4.5 -36.5l-3 -12h-737q13 -157 109.5 -238t236.5 -81q62 0 116.5 10.5t88 26t58.5 31t35 25.5l11 11l55 -110q-5 -5 -14 -13.5t-42.5 -29.5t-73.5 -37t-107.5 -29.5t-143.5 -13.5 q-215 0 -349 130.5t-134 362.5zM240 549h606q-1 75 -26 133.5t-65.5 92t-87 50.5t-96.5 17q-133 0 -226 -77t-105 -216zM240 1098l209 375h196l209 -375h-117l-190 254l-191 -254h-116z" />
<glyph unicode="&#xeb;" horiz-adv-x="1069" d="M88 479q0 232 134 362t347 130q183 0 301.5 -126.5t118.5 -312.5q0 -25 -2.5 -49.5t-4.5 -36.5l-3 -12h-737q13 -157 109.5 -238t236.5 -81q62 0 116.5 10.5t88 26t58.5 31t35 25.5l11 11l55 -110q-5 -5 -14 -13.5t-42.5 -29.5t-73.5 -37t-107.5 -29.5t-143.5 -13.5 q-215 0 -349 130.5t-134 362.5zM240 549h606q-1 75 -26 133.5t-65.5 92t-87 50.5t-96.5 17q-133 0 -226 -77t-105 -216zM283 1184q0 40 27 68t67 28t68 -28t28 -68t-28 -68.5t-68 -28.5q-39 0 -66.5 28.5t-27.5 68.5zM621 1184q0 40 28 68t68 28t69 -28t29 -68t-29 -68.5 t-69 -28.5t-68 28.5t-28 68.5z" />
<glyph unicode="&#xec;" horiz-adv-x="579" d="M-96 1462h202l193 -375h-117zM82 0v127h141v702h-141v127h295v-829h137v-127h-432z" />
<glyph unicode="&#xed;" horiz-adv-x="579" d="M82 0v127h141v702h-141v127h295v-829h137v-127h-432zM215 1098l195 375h200l-276 -375h-119z" />
<glyph unicode="&#xee;" horiz-adv-x="579" d="M-12 1098l209 375h196l209 -375h-117l-190 254l-191 -254h-116zM82 0v127h141v702h-141v127h295v-829h137v-127h-432z" />
<glyph unicode="&#xef;" horiz-adv-x="579" d="M39 1184q0 40 27 68t67 28t68 -28t28 -68t-28 -68.5t-68 -28.5q-39 0 -66.5 28.5t-27.5 68.5zM82 0v127h141v702h-141v127h295v-829h137v-127h-432zM377 1184q0 40 28 68t68 28t69 -28t29 -68t-29 -68.5t-69 -28.5t-68 28.5t-28 68.5z" />
<glyph unicode="&#xf0;" horiz-adv-x="1271" d="M92 436q0 197 123.5 316.5t351.5 119.5q149 0 253.5 -40t166.5 -89q-17 148 -88.5 261.5t-183.5 185.5l-158 -131l-72 84l123 104q-145 62 -315 62l86 139q182 0 358 -92l123 102l74 -84l-96 -82q147 -109 233 -275t86 -362q0 -337 -152.5 -503t-414.5 -166 q-228 0 -363 126.5t-135 323.5zM248 438q0 -137 91 -224t251 -87q178 0 283 112.5t118 346.5q-19 17 -44.5 35t-76.5 46.5t-125 46t-157 17.5q-154 0 -247 -83.5t-93 -209.5z" />
<glyph unicode="&#xf1;" horiz-adv-x="1230" d="M76 0v127h141v702h-141v127h258l14 -184h6q2 8 7.5 21.5t30 48t58 60.5t97.5 47.5t143 21.5q180 0 271.5 -102t91.5 -271v-471h141v-127h-295v573q0 124 -59 195.5t-189 71.5q-63 0 -114.5 -20.5t-80 -47.5t-49.5 -61t-27.5 -52t-8.5 -30v-502h135v-127h-430zM266 1139 q56 157 203 157q56 0 115.5 -23t114.5 -46t100 -23q39 0 68 18.5t65 61.5l80 -51q-25 -69 -74.5 -113.5t-128.5 -44.5q-55 0 -116 23t-116.5 46t-97.5 23q-39 0 -69 -19t-64 -61z" />
<glyph unicode="&#xf2;" horiz-adv-x="1128" d="M88 479q0 230 135 361t342 131t342 -131t135 -361q0 -233 -131.5 -363t-345.5 -130t-345.5 130t-131.5 363zM240 479q0 -177 93.5 -270.5t231.5 -93.5q136 0 230 93.5t94 270.5q0 90 -28.5 161.5t-76 114.5t-103.5 65t-116 22t-116.5 -22t-104 -65t-76 -114.5 t-28.5 -161.5zM287 1473h202l193 -375h-117z" />
<glyph unicode="&#xf3;" horiz-adv-x="1128" d="M88 479q0 230 135 361t342 131t342 -131t135 -361q0 -233 -131.5 -363t-345.5 -130t-345.5 130t-131.5 363zM240 479q0 -177 93.5 -270.5t231.5 -93.5q136 0 230 93.5t94 270.5q0 90 -28.5 161.5t-76 114.5t-103.5 65t-116 22t-116.5 -22t-104 -65t-76 -114.5 t-28.5 -161.5zM428 1098l195 375h200l-276 -375h-119z" />
<glyph unicode="&#xf4;" horiz-adv-x="1128" d="M88 479q0 230 135 361t342 131t342 -131t135 -361q0 -233 -131.5 -363t-345.5 -130t-345.5 130t-131.5 363zM240 479q0 -177 93.5 -270.5t231.5 -93.5q136 0 230 93.5t94 270.5q0 90 -28.5 161.5t-76 114.5t-103.5 65t-116 22t-116.5 -22t-104 -65t-76 -114.5 t-28.5 -161.5zM254 1098l209 375h196l209 -375h-116l-191 254l-190 -254h-117z" />
<glyph unicode="&#xf5;" horiz-adv-x="1128" d="M88 479q0 230 135 361t342 131t342 -131t135 -361q0 -233 -131.5 -363t-345.5 -130t-345.5 130t-131.5 363zM186 1139q56 157 203 157q56 0 115.5 -23t114.5 -46t100 -23q39 0 68 18.5t65 61.5l80 -51q-25 -69 -74.5 -113.5t-128.5 -44.5q-55 0 -116 23t-116.5 46 t-97.5 23q-39 0 -69 -19t-64 -61zM240 479q0 -177 93.5 -270.5t231.5 -93.5q136 0 230 93.5t94 270.5q0 90 -28.5 161.5t-76 114.5t-103.5 65t-116 22t-116.5 -22t-104 -65t-76 -114.5t-28.5 -161.5z" />
<glyph unicode="&#xf6;" horiz-adv-x="1128" d="M88 479q0 230 135 361t342 131t342 -131t135 -361q0 -233 -131.5 -363t-345.5 -130t-345.5 130t-131.5 363zM240 479q0 -177 93.5 -270.5t231.5 -93.5q136 0 230 93.5t94 270.5q0 90 -28.5 161.5t-76 114.5t-103.5 65t-116 22t-116.5 -22t-104 -65t-76 -114.5 t-28.5 -161.5zM285 1184q0 40 27 68t67 28t68 -28t28 -68t-28 -68.5t-68 -28.5q-39 0 -66.5 28.5t-27.5 68.5zM623 1184q0 40 28 68t68 28t69 -28t29 -68t-29 -68.5t-69 -28.5t-68 28.5t-28 68.5z" />
<glyph unicode="&#xf7;" horiz-adv-x="1155" d="M127 520v129h901v-129h-901zM485 219q0 41 28.5 68.5t70.5 27.5q40 0 69 -27.5t29 -68.5t-29 -69.5t-69 -28.5q-41 0 -70 28.5t-29 69.5zM485 924q0 40 29 69t70 29q40 0 69 -29t29 -69q0 -42 -29 -70.5t-69 -28.5q-42 0 -70.5 28.5t-28.5 70.5z" />
<glyph unicode="&#xf8;" horiz-adv-x="1128" d="M88 479q0 230 135 361t342 131q85 0 162 -25l45 88l109 -59l-41 -80q95 -62 148.5 -168t53.5 -248q0 -233 -131.5 -363t-345.5 -130q-93 0 -170 24l-53 -106l-109 59l50 100q-93 61 -144 167t-51 249zM240 479q0 -189 108 -286l318 632q-56 17 -101 17q-60 0 -116.5 -22 t-104 -65t-76 -114.5t-28.5 -161.5zM457 131q56 -16 108 -16q136 0 230 93.5t94 270.5q0 185 -115 285z" />
<glyph unicode="&#xf9;" horiz-adv-x="1212" d="M41 829v127h293v-573q0 -124 59 -195t189 -71q46 0 85.5 11t66.5 26.5t50 40t35.5 41.5t23.5 42t13 31.5t6 18.5v501h-135v127h289v-829h141v-127h-258l-16 193h-4q-2 -8 -7.5 -22t-30 -50t-58 -63t-97.5 -49.5t-143 -22.5q-180 0 -271.5 101.5t-91.5 270.5v471h-139z M244 1473h202l193 -375h-117z" />
<glyph unicode="&#xfa;" horiz-adv-x="1212" d="M41 829v127h293v-573q0 -124 59 -195t189 -71q46 0 85.5 11t66.5 26.5t50 40t35.5 41.5t23.5 42t13 31.5t6 18.5v501h-135v127h289v-829h141v-127h-258l-16 193h-4q-2 -8 -7.5 -22t-30 -50t-58 -63t-97.5 -49.5t-143 -22.5q-180 0 -271.5 101.5t-91.5 270.5v471h-139z M379 1098l194 375h201l-276 -375h-119z" />
<glyph unicode="&#xfb;" horiz-adv-x="1212" d="M41 829v127h293v-573q0 -124 59 -195t189 -71q46 0 85.5 11t66.5 26.5t50 40t35.5 41.5t23.5 42t13 31.5t6 18.5v501h-135v127h289v-829h141v-127h-258l-16 193h-4q-2 -8 -7.5 -22t-30 -50t-58 -63t-97.5 -49.5t-143 -22.5q-180 0 -271.5 101.5t-91.5 270.5v471h-139z M244 1098l209 375h196l209 -375h-117l-190 254l-191 -254h-116z" />
<glyph unicode="&#xfc;" horiz-adv-x="1212" d="M41 829v127h293v-573q0 -124 59 -195t189 -71q46 0 85.5 11t66.5 26.5t50 40t35.5 41.5t23.5 42t13 31.5t6 18.5v501h-135v127h289v-829h141v-127h-258l-16 193h-4q-2 -8 -7.5 -22t-30 -50t-58 -63t-97.5 -49.5t-143 -22.5q-180 0 -271.5 101.5t-91.5 270.5v471h-139z M287 1184q0 40 27 68t67 28t68 -28t28 -68t-28 -68.5t-68 -28.5q-39 0 -66.5 28.5t-27.5 68.5zM625 1184q0 40 28 68t68 28t69 -28t29 -68t-29 -68.5t-69 -28.5t-68 28.5t-28 68.5z" />
<glyph unicode="&#xfd;" horiz-adv-x="1163" d="M12 829v127h414v-127h-115l267 -659h12l268 659h-119v127h412v-127h-139l-355 -860q-29 -74 -75 -147.5t-113 -148.5t-163 -140.5t-208 -107.5l-49 135q154 58 282 174t185 248l12 32h-34l-342 815h-140zM424 1098l194 375h201l-276 -375h-119z" />
<glyph unicode="&#xfe;" horiz-adv-x="1169" d="M23 -442h141v1843h-141v127h294v-637l-6 -70h6q11 15 23.5 29t42.5 37.5t63 40.5t84.5 30t108.5 13q195 0 317.5 -129.5t122.5 -364.5q0 -115 -35.5 -209t-96.5 -155t-140.5 -94t-169.5 -33q-65 0 -122 13.5t-92 32.5t-60 38.5t-35 33.5l-11 13h-6q6 -62 6 -70v-502h168 v-114h-462v127zM317 250q13 -20 32 -39t53 -43t87 -38.5t117 -14.5q59 0 115 22.5t102.5 65.5t74.5 114t28 160q0 174 -93 269.5t-229 95.5q-90 0 -170 -43t-117 -117v-432z" />
<glyph unicode="&#xff;" horiz-adv-x="1163" d="M12 829v127h414v-127h-115l267 -659h12l268 659h-119v127h412v-127h-139l-355 -860q-29 -74 -75 -147.5t-113 -148.5t-163 -140.5t-208 -107.5l-49 135q154 58 282 174t185 248l12 32h-34l-342 815h-140zM330 1184q0 40 27 68t67 28t68 -28t28 -68t-28 -68.5t-68 -28.5 q-39 0 -66.5 28.5t-27.5 68.5zM668 1184q0 40 28 68t68 28t69 -28t29 -68t-29 -68.5t-69 -28.5t-68 28.5t-28 68.5z" />
<glyph unicode="&#x152;" horiz-adv-x="1808" d="M182 694q0 358 164 536.5t455 178.5h895l6 -354h-125v221h-621v-500h521v-131h-521v-512h619v219h125l-6 -352h-914q-283 6 -440.5 178t-157.5 516zM346 694q0 -153 32.5 -263t94 -173t142 -92t184.5 -29v1135q-103 -1 -184 -33.5t-142.5 -100t-94 -179.5t-32.5 -265z " />
<glyph unicode="&#x153;" horiz-adv-x="1873" d="M88 479q0 230 135 361t342 131q129 0 234.5 -53.5t167.5 -153.5q63 101 169 154t240 53q183 0 301.5 -126.5t118.5 -312.5q0 -25 -2.5 -49.5t-5.5 -36.5l-2 -12h-737q13 -157 109.5 -238t236.5 -81q62 0 116.5 10.5t88 26t58.5 31t36 25.5l10 11l55 -110q-5 -5 -14 -13.5 t-42.5 -29.5t-73.5 -37t-107.5 -29.5t-143.5 -13.5q-134 0 -240 52.5t-169 151.5q-61 -99 -166 -151.5t-238 -52.5q-214 0 -345.5 130t-131.5 363zM240 479q0 -177 93.5 -270.5t231.5 -93.5q136 0 230 93.5t94 270.5q0 90 -28.5 161.5t-76 114.5t-103.5 65t-116 22 t-116.5 -22t-104 -65t-76 -114.5t-28.5 -161.5zM1047 549h606q-1 75 -26 133.5t-65.5 92t-87 50.5t-96.5 17q-133 0 -226 -77t-105 -216z" />
<glyph unicode="&#x178;" horiz-adv-x="1382" d="M-2 1282v127h504v-127h-166l350 -594h14l359 594h-170v127h497v-127h-159l-455 -737v-418h186v-127h-532v127h186v418l-456 737h-158zM430 1593q0 40 27.5 68.5t66.5 28.5q40 0 68.5 -28.5t28.5 -68.5t-28.5 -68t-68.5 -28t-67 28t-27 68zM768 1593q0 40 28 68.5t68 28.5 t69.5 -28.5t29.5 -68.5q0 -39 -29.5 -67.5t-69.5 -28.5t-68 28t-28 68z" />
<glyph unicode="&#x2c6;" horiz-adv-x="833" d="M109 1098l208 375h197l209 -375h-117l-190 254l-191 -254h-116z" />
<glyph unicode="&#x2dc;" horiz-adv-x="774" d="M25 1139q56 157 202 157q56 0 115.5 -23t114.5 -46t100 -23q39 0 68 18.5t65 61.5l80 -51q-25 -69 -74.5 -113.5t-128.5 -44.5q-55 0 -116 23t-116 46t-97 23q-40 0 -70 -19t-64 -61z" />
<glyph unicode="&#x2000;" horiz-adv-x="967" />
<glyph unicode="&#x2001;" horiz-adv-x="1935" />
<glyph unicode="&#x2002;" horiz-adv-x="967" />
<glyph unicode="&#x2003;" horiz-adv-x="1935" />
<glyph unicode="&#x2004;" horiz-adv-x="645" />
<glyph unicode="&#x2005;" horiz-adv-x="483" />
<glyph unicode="&#x2006;" horiz-adv-x="322" />
<glyph unicode="&#x2007;" horiz-adv-x="322" />
<glyph unicode="&#x2008;" horiz-adv-x="241" />
<glyph unicode="&#x2009;" horiz-adv-x="387" />
<glyph unicode="&#x200a;" horiz-adv-x="107" />
<glyph unicode="&#x2010;" horiz-adv-x="948" d="M133 526v144h682v-144h-682z" />
<glyph unicode="&#x2011;" horiz-adv-x="948" d="M133 526v144h682v-144h-682z" />
<glyph unicode="&#x2012;" horiz-adv-x="948" d="M133 526v144h682v-144h-682z" />
<glyph unicode="&#x2013;" horiz-adv-x="1157" d="M133 526v144h893v-144h-893z" />
<glyph unicode="&#x2014;" horiz-adv-x="1796" d="M133 526v144h1530v-144h-1530z" />
<glyph unicode="&#x2018;" horiz-adv-x="415" d="M100 1356q0 60 15 107t40.5 75t49.5 43.5t51 24.5l23 -56q-29 -9 -61 -45t-32 -94l4 -18q10 10 39 10q36 0 61 -26.5t25 -67.5q0 -40 -28.5 -67.5t-69.5 -27.5q-53 0 -85 37.5t-32 104.5z" />
<glyph unicode="&#x2019;" horiz-adv-x="415" d="M104 1432q0 40 29 67t70 27q53 0 84.5 -37.5t31.5 -104.5q0 -60 -15 -107t-40.5 -74.5t-49 -43t-50.5 -24.5l-23 55q29 9 60.5 45t31.5 94l-4 19q-10 -11 -39 -11q-36 0 -61 27t-25 68z" />
<glyph unicode="&#x201a;" horiz-adv-x="471" d="M127 80q0 40 28.5 67t69.5 27q53 0 85 -37.5t32 -103.5q0 -60 -15 -107t-40.5 -75t-49.5 -43.5t-51 -24.5l-22 55q29 9 60.5 45t31.5 94l-4 19q-10 -10 -39 -10q-36 0 -61 26.5t-25 67.5z" />
<glyph unicode="&#x201c;" horiz-adv-x="743" d="M100 1356q0 60 15 107t40.5 75t49.5 43.5t51 24.5l23 -56q-29 -9 -61 -45t-32 -94l4 -18q10 10 39 10q36 0 61 -26.5t25 -67.5q0 -40 -28.5 -67.5t-69.5 -27.5q-53 0 -85 37.5t-32 104.5zM430 1356q0 60 15 107t40.5 75t49.5 43.5t51 24.5l22 -56q-29 -9 -60.5 -45 t-31.5 -94l4 -18q10 10 39 10q36 0 61 -26.5t25 -67.5q0 -40 -28.5 -67.5t-69.5 -27.5q-53 0 -85 37.5t-32 104.5z" />
<glyph unicode="&#x201d;" horiz-adv-x="722" d="M104 1432q0 40 29 67t70 27q53 0 84.5 -37.5t31.5 -104.5q0 -60 -15 -107t-40.5 -74.5t-49 -43t-50.5 -24.5l-23 55q29 9 60.5 45t31.5 94l-4 19q-10 -11 -39 -11q-36 0 -61 27t-25 68zM410 1432q0 40 28.5 67t69.5 27q53 0 85 -37.5t32 -104.5q0 -60 -15 -107 t-40.5 -74.5t-49.5 -43t-51 -24.5l-23 55q29 9 61 45t32 94l-4 19q-10 -11 -39 -11q-36 0 -61 27t-25 68z" />
<glyph unicode="&#x201e;" horiz-adv-x="776" d="M127 80q0 40 28.5 67t69.5 27q53 0 85 -37.5t32 -103.5q0 -60 -15 -107t-40.5 -75t-49.5 -43.5t-51 -24.5l-22 55q29 9 60.5 45t31.5 94l-4 19q-10 -10 -39 -10q-36 0 -61 26.5t-25 67.5zM434 80q0 40 28.5 67t69.5 27q53 0 85 -37.5t32 -103.5q0 -60 -15 -107t-40.5 -75 t-49 -43.5t-50.5 -24.5l-23 55q29 9 60.5 45t31.5 94l-4 19q-10 -10 -39 -10q-36 0 -61 26.5t-25 67.5z" />
<glyph unicode="&#x2022;" horiz-adv-x="731" d="M164 686q0 94 53 151.5t148 57.5q92 0 148 -58t56 -151q0 -95 -55.5 -151t-148.5 -56q-96 0 -148.5 55.5t-52.5 151.5z" />
<glyph unicode="&#x2026;" horiz-adv-x="980" d="M125 84q0 40 28 69t68 29q42 0 70 -29t28 -69q0 -42 -28 -70t-70 -28q-40 0 -68 28.5t-28 69.5zM391 84q0 40 29 69t69 29q42 0 71.5 -29t29.5 -69q0 -41 -29 -69.5t-72 -28.5q-40 0 -69 28.5t-29 69.5zM659 84q0 40 29 69t70 29t69.5 -29t28.5 -69q0 -41 -28.5 -69.5 t-69.5 -28.5t-70 28.5t-29 69.5z" />
<glyph unicode="&#x202f;" horiz-adv-x="387" />
<glyph unicode="&#x2039;" horiz-adv-x="587" d="M100 438v107l289 338l109 -86l-258 -305l258 -306l-109 -86z" />
<glyph unicode="&#x203a;" horiz-adv-x="587" d="M92 186l258 306l-258 305l107 86l290 -338v-107l-290 -338z" />
<glyph unicode="&#x205f;" horiz-adv-x="483" />
<glyph unicode="&#x20ac;" horiz-adv-x="1394" d="M66 479v127h188q-2 29 -2 90v58h-186v125h198q40 270 204 406t421 136q78 0 146 -12t119.5 -34t78 -36t59.5 -36l-80 -117q-137 94 -317 94q-187 0 -307.5 -97t-157.5 -304h588v-125h-602v-60q0 -61 2 -88h512v-127h-492q81 -352 459 -352q187 0 317 92l80 -119 q-176 -114 -405 -114q-248 0 -408.5 123t-210.5 370h-204z" />
<glyph unicode="&#x2122;" horiz-adv-x="2242" d="M127 1229v241h803v-241h-92v139h-246v-676h108v-100h-344v100h115v676h-254v-139h-90zM1022 592v100h106l37 676h-106v102h260l201 -493l51 -148h2q28 93 51 148l203 493h258v-102h-105l33 -676h109v-100h-320v100h96l-34 617h-2l-258 -631h-70l-252 631h-2l-37 -617h96 v-100h-317z" />
<glyph unicode="&#x25fc;" horiz-adv-x="952" d="M0 0v952h952v-952h-952z" />
</font>
</defs>
</svg>
